<svg width="1249" height="581" viewBox="0 0 1249 581" fill="none" xmlns="http://www.w3.org/2000/svg">
<path d="M538.01 51H1122.07C1290.38 51 1288.38 218 1122.07 218" stroke="white" stroke-width="2" stroke-linecap="round"/>
<path d="M504.385 14C524.819 14 541.385 30.5655 541.385 51C541.385 71.4345 524.819 88 504.385 88H186.385C165.95 88 149.385 71.4345 149.385 51C149.385 30.5655 165.95 14 186.385 14H504.385Z" fill="#D946EF"/>
<path d="M514.931 1C536.721 1 554.385 23.3858 554.385 51C554.385 78.6142 536.721 101 514.931 101H175.839C154.049 101 136.385 78.6142 136.385 51C136.385 23.3858 154.049 1 175.839 1H514.931Z" stroke="#FBFBFB" stroke-width="2" stroke-miterlimit="2.5593" stroke-linecap="round" stroke-dasharray="8 8"/>
<path d="M195.785 41.3636V61H193.407V43.473H183.512V61H181.134V41.3636H195.785ZM206.449 61.3068C205.03 61.3068 203.806 60.9936 202.777 60.3672C201.754 59.7344 200.964 58.8523 200.408 57.7209C199.859 56.5831 199.584 55.2599 199.584 53.7514C199.584 52.2429 199.859 50.9134 200.408 49.7628C200.964 48.6058 201.738 47.7045 202.729 47.0589C203.726 46.407 204.889 46.081 206.219 46.081C206.986 46.081 207.743 46.2088 208.491 46.4645C209.239 46.7202 209.92 47.1357 210.533 47.7109C211.147 48.2798 211.636 49.0341 212 49.9737C212.365 50.9134 212.547 52.0703 212.547 53.4446V54.4034H201.195V52.4474H210.246C210.246 51.6165 210.08 50.875 209.747 50.223C209.421 49.571 208.955 49.0565 208.347 48.6793C207.746 48.3022 207.037 48.1136 206.219 48.1136C205.317 48.1136 204.538 48.3374 203.879 48.7848C203.227 49.2259 202.725 49.8011 202.374 50.5107C202.022 51.2202 201.847 51.9808 201.847 52.7926V54.0966C201.847 55.2088 202.038 56.1516 202.422 56.9251C202.812 57.6921 203.352 58.277 204.042 58.6797C204.733 59.076 205.535 59.2741 206.449 59.2741C207.043 59.2741 207.58 59.1911 208.06 59.0249C208.545 58.8523 208.964 58.5966 209.316 58.2578C209.667 57.9126 209.939 57.4844 210.131 56.973L212.317 57.5866C212.087 58.3281 211.7 58.9801 211.157 59.5426C210.613 60.0987 209.942 60.5334 209.143 60.8466C208.344 61.1534 207.446 61.3068 206.449 61.3068ZM215.989 66.5227V46.2727H218.175V48.6122H218.444C218.61 48.3565 218.84 48.0305 219.134 47.6342C219.434 47.2315 219.863 46.8736 220.419 46.5604C220.981 46.2408 221.742 46.081 222.701 46.081C223.941 46.081 225.034 46.391 225.98 47.011C226.926 47.631 227.664 48.5099 228.195 49.6477C228.725 50.7855 228.99 52.1278 228.99 53.6747C228.99 55.2344 228.725 56.5863 228.195 57.7305C227.664 58.8683 226.929 59.7504 225.989 60.3768C225.05 60.9968 223.966 61.3068 222.739 61.3068C221.793 61.3068 221.036 61.1502 220.467 60.837C219.898 60.5174 219.46 60.1562 219.153 59.7536C218.846 59.3445 218.61 59.0057 218.444 58.7372H218.252V66.5227H215.989ZM218.213 53.6364C218.213 54.7486 218.376 55.7298 218.702 56.5799C219.028 57.4237 219.505 58.0852 220.131 58.5646C220.757 59.0376 221.525 59.2741 222.432 59.2741C223.378 59.2741 224.168 59.0249 224.8 58.5263C225.44 58.0213 225.919 57.3437 226.239 56.4936C226.565 55.6371 226.728 54.6847 226.728 53.6364C226.728 52.6009 226.568 51.6676 226.248 50.8366C225.935 49.9993 225.459 49.3377 224.82 48.8519C224.187 48.3597 223.391 48.1136 222.432 48.1136C221.512 48.1136 220.738 48.3469 220.112 48.8136C219.485 49.2738 219.012 49.9194 218.693 50.7504C218.373 51.5749 218.213 52.5369 218.213 53.6364ZM232.442 61V46.2727H238.463C240.049 46.2727 241.308 46.6307 242.241 47.3466C243.174 48.0625 243.641 49.0085 243.641 50.1847C243.641 51.0795 243.376 51.7731 242.845 52.2653C242.315 52.7511 241.634 53.0803 240.803 53.2528C241.346 53.3295 241.874 53.5213 242.385 53.8281C242.903 54.1349 243.331 54.5568 243.67 55.0938C244.009 55.6243 244.178 56.2763 244.178 57.0497C244.178 57.804 243.986 58.4783 243.603 59.0728C243.219 59.6673 242.669 60.1371 241.953 60.4822C241.238 60.8274 240.381 61 239.384 61H232.442ZM234.59 58.929H239.384C240.164 58.929 240.774 58.7436 241.215 58.3729C241.656 58.0021 241.877 57.4972 241.877 56.858C241.877 56.0973 241.656 55.4996 241.215 55.065C240.774 54.6239 240.164 54.4034 239.384 54.4034H234.59V58.929ZM234.59 52.4474H238.463C239.071 52.4474 239.592 52.3643 240.026 52.1982C240.461 52.0256 240.793 51.7827 241.023 51.4695C241.26 51.1499 241.378 50.7727 241.378 50.3381C241.378 49.718 241.119 49.2322 240.602 48.8807C240.084 48.5227 239.371 48.3438 238.463 48.3438H234.59V52.4474ZM249.866 57.6634L256.961 46.2727H259.569V61H257.306V49.6094L250.25 61H247.603V46.2727H249.866V57.6634ZM275.066 46.2727V61H272.803V46.2727H275.066ZM274.184 53.2912V55.4006C273.672 55.5923 273.164 55.7617 272.659 55.9087C272.154 56.0494 271.624 56.1612 271.068 56.2443C270.512 56.321 269.901 56.3594 269.236 56.3594C267.568 56.3594 266.229 55.9087 265.219 55.0075C264.215 54.1062 263.714 52.7543 263.714 50.9517V46.2344H265.976V50.9517C265.976 51.706 266.12 52.326 266.408 52.8118C266.695 53.2976 267.085 53.6587 267.578 53.8952C268.07 54.1317 268.623 54.25 269.236 54.25C270.195 54.25 271.061 54.1637 271.835 53.9911C272.615 53.8121 273.398 53.5788 274.184 53.2912ZM289.074 52.6009V54.7102H280.943V52.6009H289.074ZM281.48 46.2727V61H279.218V46.2727H281.48ZM290.8 46.2727V61H288.537V46.2727H290.8ZM299.266 61.3452C298.333 61.3452 297.486 61.1694 296.725 60.8178C295.965 60.4599 295.361 59.9453 294.913 59.2741C294.466 58.5966 294.242 57.7784 294.242 56.8196C294.242 55.9759 294.408 55.2919 294.741 54.7678C295.073 54.2372 295.517 53.8217 296.073 53.5213C296.629 53.2209 297.243 52.9972 297.914 52.8501C298.592 52.6967 299.273 52.5753 299.956 52.4858C300.851 52.3707 301.577 52.2844 302.133 52.2269C302.695 52.163 303.105 52.0575 303.36 51.9105C303.622 51.7635 303.753 51.5078 303.753 51.1435V51.0668C303.753 50.1207 303.494 49.3857 302.977 48.8615C302.465 48.3374 301.689 48.0753 300.647 48.0753C299.567 48.0753 298.72 48.3118 298.106 48.7848C297.492 49.2578 297.061 49.7628 296.812 50.2997L294.664 49.5327C295.047 48.6378 295.559 47.9411 296.198 47.4425C296.844 46.9375 297.547 46.5859 298.307 46.3878C299.074 46.1832 299.829 46.081 300.57 46.081C301.043 46.081 301.586 46.1385 302.2 46.2536C302.82 46.3622 303.418 46.5891 303.993 46.9343C304.575 47.2795 305.057 47.8004 305.441 48.4972C305.824 49.1939 306.016 50.1271 306.016 51.2969V61H303.753V59.0057H303.638C303.485 59.3253 303.229 59.6673 302.871 60.0316C302.513 60.396 302.037 60.706 301.443 60.9616C300.848 61.2173 300.123 61.3452 299.266 61.3452ZM299.611 59.3125C300.506 59.3125 301.26 59.1367 301.874 58.7852C302.494 58.4336 302.961 57.9798 303.274 57.4237C303.594 56.8675 303.753 56.2827 303.753 55.669V53.598C303.657 53.7131 303.447 53.8185 303.121 53.9144C302.801 54.0039 302.43 54.0838 302.008 54.1541C301.593 54.218 301.187 54.2756 300.791 54.3267C300.401 54.3714 300.084 54.4098 299.841 54.4418C299.253 54.5185 298.704 54.6431 298.192 54.8157C297.687 54.9819 297.278 55.2344 296.965 55.5732C296.658 55.9055 296.505 56.3594 296.505 56.9347C296.505 57.7209 296.796 58.3153 297.377 58.718C297.965 59.1143 298.71 59.3125 299.611 59.3125ZM319.006 61V48.3438H315.094C314.212 48.3438 313.518 48.5483 313.013 48.9574C312.508 49.3665 312.256 49.929 312.256 50.6449C312.256 51.348 312.483 51.9009 312.936 52.3036C313.397 52.7063 314.026 52.9077 314.825 52.9077H319.581V55.017H314.825C313.828 55.017 312.968 54.8413 312.246 54.4897C311.524 54.1381 310.968 53.6364 310.578 52.9844C310.188 52.326 309.993 51.5462 309.993 50.6449C309.993 49.7372 310.197 48.9574 310.606 48.3054C311.016 47.6534 311.6 47.1516 312.361 46.8001C313.128 46.4485 314.039 46.2727 315.094 46.2727H321.153V61H319.006ZM309.187 61L313.368 53.6747H315.822L311.642 61H309.187ZM332.901 61V46.2727H335.164V52.6776H336.66L341.952 46.2727H344.867L338.922 53.3679L344.944 61H342.029L337.197 54.7869H335.164V61H332.901ZM352.78 61.3068C351.45 61.3068 350.283 60.9904 349.28 60.3576C348.283 59.7248 347.503 58.8395 346.94 57.7017C346.384 56.5639 346.106 55.2344 346.106 53.7131C346.106 52.179 346.384 50.8398 346.94 49.6957C347.503 48.5515 348.283 47.663 349.28 47.0302C350.283 46.3974 351.45 46.081 352.78 46.081C354.109 46.081 355.272 46.3974 356.27 47.0302C357.273 47.663 358.053 48.5515 358.609 49.6957C359.172 50.8398 359.453 52.179 359.453 53.7131C359.453 55.2344 359.172 56.5639 358.609 57.7017C358.053 58.8395 357.273 59.7248 356.27 60.3576C355.272 60.9904 354.109 61.3068 352.78 61.3068ZM352.78 59.2741C353.79 59.2741 354.62 59.0153 355.272 58.4975C355.924 57.9798 356.407 57.299 356.72 56.4553C357.033 55.6115 357.19 54.6974 357.19 53.7131C357.19 52.7287 357.033 51.8114 356.72 50.9613C356.407 50.1112 355.924 49.424 355.272 48.8999C354.62 48.3757 353.79 48.1136 352.78 48.1136C351.77 48.1136 350.939 48.3757 350.287 48.8999C349.635 49.424 349.152 50.1112 348.839 50.9613C348.526 51.8114 348.369 52.7287 348.369 53.7131C348.369 54.6974 348.526 55.6115 348.839 56.4553C349.152 57.299 349.635 57.9798 350.287 58.4975C350.939 59.0153 351.77 59.2741 352.78 59.2741ZM372.763 52.6009V54.7102H364.633V52.6009H372.763ZM365.17 46.2727V61H362.907V46.2727H365.17ZM374.489 46.2727V61H372.227V46.2727H374.489ZM384.605 61.3068C383.224 61.3068 382.035 60.9808 381.038 60.3288C380.041 59.6768 379.274 58.7788 378.737 57.6346C378.2 56.4904 377.931 55.1832 377.931 53.7131C377.931 52.2173 378.206 50.8974 378.756 49.7532C379.312 48.6026 380.086 47.7045 381.076 47.0589C382.074 46.407 383.237 46.081 384.566 46.081C385.602 46.081 386.535 46.2727 387.366 46.6562C388.197 47.0398 388.878 47.5767 389.408 48.267C389.939 48.9574 390.268 49.7628 390.396 50.6832H388.133C387.961 50.0121 387.577 49.4176 386.983 48.8999C386.395 48.3757 385.602 48.1136 384.605 48.1136C383.723 48.1136 382.949 48.3437 382.284 48.804C381.626 49.2578 381.112 49.9002 380.741 50.7312C380.376 51.5558 380.194 52.5241 380.194 53.6364C380.194 54.7741 380.373 55.7649 380.731 56.6087C381.096 57.4524 381.607 58.1076 382.265 58.5742C382.93 59.0408 383.71 59.2741 384.605 59.2741C385.193 59.2741 385.727 59.1719 386.206 58.9673C386.685 58.7628 387.091 58.4688 387.424 58.0852C387.756 57.7017 387.993 57.2415 388.133 56.7045H390.396C390.268 57.5739 389.952 58.3569 389.447 59.0536C388.948 59.744 388.287 60.2937 387.462 60.7028C386.644 61.1055 385.691 61.3068 384.605 61.3068ZM395.161 66.5227C394.778 66.5227 394.436 66.4908 394.135 66.4268C393.835 66.3693 393.627 66.3118 393.512 66.2543L394.087 64.2599C394.637 64.4006 395.123 64.4517 395.545 64.4134C395.967 64.375 396.341 64.1864 396.667 63.8477C396.999 63.5153 397.303 62.9751 397.577 62.2273L397.999 61.0767L392.553 46.2727H395.008L399.073 58.0085H399.227L403.292 46.2727H405.746L399.495 63.1477C399.214 63.9084 398.865 64.538 398.45 65.0366C398.034 65.5415 397.552 65.9155 397.002 66.1584C396.459 66.4013 395.845 66.5227 395.161 66.5227ZM406.19 61V58.8906H406.727C407.168 58.8906 407.535 58.8043 407.829 58.6317C408.123 58.4528 408.36 58.1428 408.539 57.7017C408.724 57.2543 408.865 56.6342 408.961 55.8416C409.063 55.0426 409.137 54.0263 409.181 52.7926L409.45 46.2727H419.268V61H417.005V48.3821H411.598L411.367 53.6364C411.316 54.8445 411.208 55.9087 411.041 56.8292C410.882 57.7433 410.636 58.5103 410.303 59.1303C409.977 59.7504 409.543 60.217 408.999 60.5302C408.456 60.8434 407.775 61 406.957 61H406.19ZM425.376 51.6037H429.594C431.32 51.6037 432.64 52.0415 433.554 52.9173C434.468 53.793 434.925 54.902 434.925 56.2443C434.925 57.1264 434.721 57.9286 434.312 58.6509C433.903 59.3668 433.302 59.9389 432.509 60.3672C431.717 60.7891 430.745 61 429.594 61H423.42V46.2727H425.682V58.8906H429.594C430.489 58.8906 431.224 58.6541 431.8 58.1811C432.375 57.7081 432.663 57.1009 432.663 56.3594C432.663 55.5795 432.375 54.9435 431.8 54.4513C431.224 53.9592 430.489 53.7131 429.594 53.7131H425.376V51.6037ZM435.997 48.3821V46.2727H447.963V48.3821H443.13V61H440.868V48.3821H435.997ZM454.833 61.3452C453.899 61.3452 453.052 61.1694 452.292 60.8178C451.531 60.4599 450.927 59.9453 450.48 59.2741C450.032 58.5966 449.808 57.7784 449.808 56.8196C449.808 55.9759 449.975 55.2919 450.307 54.7678C450.639 54.2372 451.084 53.8217 451.64 53.5213C452.196 53.2209 452.809 52.9972 453.481 52.8501C454.158 52.6967 454.839 52.5753 455.523 52.4858C456.418 52.3707 457.143 52.2844 457.699 52.2269C458.262 52.163 458.671 52.0575 458.927 51.9105C459.189 51.7635 459.32 51.5078 459.32 51.1435V51.0668C459.32 50.1207 459.061 49.3857 458.543 48.8615C458.032 48.3374 457.255 48.0753 456.213 48.0753C455.133 48.0753 454.286 48.3118 453.672 48.7848C453.059 49.2578 452.627 49.7628 452.378 50.2997L450.23 49.5327C450.614 48.6378 451.125 47.9411 451.764 47.4425C452.41 46.9375 453.113 46.5859 453.874 46.3878C454.641 46.1832 455.395 46.081 456.137 46.081C456.61 46.081 457.153 46.1385 457.767 46.2536C458.387 46.3622 458.984 46.5891 459.559 46.9343C460.141 47.2795 460.624 47.8004 461.007 48.4972C461.391 49.1939 461.583 50.1271 461.583 51.2969V61H459.32V59.0057H459.205C459.051 59.3253 458.796 59.6673 458.438 60.0316C458.08 60.396 457.604 60.706 457.009 60.9616C456.415 61.2173 455.689 61.3452 454.833 61.3452ZM455.178 59.3125C456.073 59.3125 456.827 59.1367 457.441 58.7852C458.061 58.4336 458.527 57.9798 458.84 57.4237C459.16 56.8675 459.32 56.2827 459.32 55.669V53.598C459.224 53.7131 459.013 53.8185 458.687 53.9144C458.367 54.0039 457.997 54.0838 457.575 54.1541C457.159 54.218 456.753 54.2756 456.357 54.3267C455.967 54.3714 455.651 54.4098 455.408 54.4418C454.82 54.5185 454.27 54.6431 453.759 54.8157C453.254 54.9819 452.845 55.2344 452.531 55.5732C452.225 55.9055 452.071 56.3594 452.071 56.9347C452.071 57.7209 452.362 58.3153 452.944 58.718C453.532 59.1143 454.276 59.3125 455.178 59.3125ZM477.295 46.2727V58.8906H479.366V65.7557H477.103V61H465.713V46.2727H467.975V58.8906H475.032V46.2727H477.295ZM485.114 57.6634L492.209 46.2727H494.817V61H492.554V49.6094L485.498 61H482.851V46.2727H485.114V57.6634ZM507.821 61V48.3438H503.909C503.027 48.3438 502.333 48.5483 501.828 48.9574C501.324 49.3665 501.071 49.929 501.071 50.6449C501.071 51.348 501.298 51.9009 501.752 52.3036C502.212 52.7063 502.842 52.9077 503.641 52.9077H508.396V55.017H503.641C502.643 55.017 501.784 54.8413 501.061 54.4897C500.339 54.1381 499.783 53.6364 499.393 52.9844C499.003 52.326 498.808 51.5462 498.808 50.6449C498.808 49.7372 499.013 48.9574 499.422 48.3054C499.831 47.6534 500.416 47.1516 501.176 46.8001C501.944 46.4485 502.854 46.2727 503.909 46.2727H509.969V61H507.821ZM498.003 61L502.183 53.6747H504.638L500.457 61H498.003Z" fill="white"/>
<path d="M726.385 181.5H1044.38C1063.99 181.5 1079.88 197.394 1079.88 217C1079.88 236.606 1063.99 252.5 1044.38 252.5H726.385C706.779 252.5 690.885 236.606 690.885 217C690.885 197.394 706.779 181.5 726.385 181.5Z" stroke="white" stroke-width="3"/>
<path d="M734.86 227H732.368L739.578 207.364H742.032L749.243 227H746.75L740.882 210.47H740.728L734.86 227ZM735.781 219.33H745.829V221.439H735.781V219.33ZM761.851 218.601V220.71H753.72V218.601H761.851ZM754.257 212.273V227H751.994V212.273H754.257ZM763.577 212.273V227H761.314V212.273H763.577ZM772.043 227.345C771.11 227.345 770.263 227.169 769.502 226.818C768.742 226.46 768.137 225.945 767.69 225.274C767.243 224.597 767.019 223.778 767.019 222.82C767.019 221.976 767.185 221.292 767.517 220.768C767.85 220.237 768.294 219.822 768.85 219.521C769.406 219.221 770.02 218.997 770.691 218.85C771.369 218.697 772.049 218.575 772.733 218.486C773.628 218.371 774.354 218.284 774.91 218.227C775.472 218.163 775.881 218.058 776.137 217.911C776.399 217.763 776.53 217.508 776.53 217.143V217.067C776.53 216.121 776.271 215.386 775.754 214.862C775.242 214.337 774.466 214.075 773.424 214.075C772.343 214.075 771.496 214.312 770.883 214.785C770.269 215.258 769.838 215.763 769.588 216.3L767.441 215.533C767.824 214.638 768.336 213.941 768.975 213.442C769.62 212.937 770.324 212.586 771.084 212.388C771.851 212.183 772.606 212.081 773.347 212.081C773.82 212.081 774.363 212.138 774.977 212.254C775.597 212.362 776.195 212.589 776.77 212.934C777.352 213.279 777.834 213.8 778.218 214.497C778.601 215.194 778.793 216.127 778.793 217.297V227H776.53V225.006H776.415C776.262 225.325 776.006 225.667 775.648 226.032C775.29 226.396 774.814 226.706 774.22 226.962C773.625 227.217 772.9 227.345 772.043 227.345ZM772.388 225.312C773.283 225.312 774.037 225.137 774.651 224.785C775.271 224.434 775.738 223.98 776.051 223.424C776.37 222.868 776.53 222.283 776.53 221.669V219.598C776.434 219.713 776.223 219.819 775.897 219.914C775.578 220.004 775.207 220.084 774.785 220.154C774.37 220.218 773.964 220.276 773.568 220.327C773.178 220.371 772.861 220.41 772.618 220.442C772.03 220.518 771.481 220.643 770.969 220.816C770.464 220.982 770.055 221.234 769.742 221.573C769.435 221.906 769.282 222.359 769.282 222.935C769.282 223.721 769.572 224.315 770.154 224.718C770.742 225.114 771.487 225.312 772.388 225.312ZM781.619 227V224.891H782.156C782.597 224.891 782.965 224.804 783.259 224.632C783.553 224.453 783.789 224.143 783.968 223.702C784.154 223.254 784.294 222.634 784.39 221.842C784.492 221.043 784.566 220.026 784.611 218.793L784.879 212.273H794.697V227H792.434V214.382H787.027L786.797 219.636C786.746 220.844 786.637 221.909 786.471 222.829C786.311 223.743 786.065 224.51 785.732 225.13C785.406 225.75 784.972 226.217 784.428 226.53C783.885 226.843 783.204 227 782.386 227H781.619ZM801.112 223.663L808.207 212.273H810.815V227H808.552V215.609L801.495 227H798.849V212.273H801.112V223.663ZM814.039 223.241H816.455C816.506 223.906 816.807 224.411 817.356 224.756C817.912 225.102 818.635 225.274 819.523 225.274C820.431 225.274 821.207 225.089 821.853 224.718C822.499 224.341 822.821 223.734 822.821 222.896C822.821 222.404 822.7 221.976 822.457 221.612C822.214 221.241 821.872 220.953 821.431 220.749C820.99 220.544 820.469 220.442 819.868 220.442H817.337V218.409H819.868C820.77 218.409 821.434 218.205 821.863 217.795C822.297 217.386 822.515 216.875 822.515 216.261C822.515 215.603 822.281 215.076 821.815 214.679C821.348 214.277 820.686 214.075 819.83 214.075C818.967 214.075 818.248 214.27 817.673 214.66C817.097 215.044 816.794 215.539 816.762 216.146H814.384C814.409 215.354 814.652 214.654 815.113 214.047C815.573 213.433 816.199 212.953 816.992 212.608C817.784 212.257 818.692 212.081 819.715 212.081C820.75 212.081 821.648 212.263 822.409 212.627C823.176 212.985 823.767 213.474 824.183 214.094C824.605 214.708 824.816 215.405 824.816 216.185C824.816 217.016 824.582 217.687 824.116 218.198C823.649 218.71 823.064 219.074 822.361 219.291V219.445C822.917 219.483 823.4 219.662 823.809 219.982C824.224 220.295 824.547 220.707 824.777 221.218C825.008 221.723 825.123 222.283 825.123 222.896C825.123 223.791 824.883 224.571 824.403 225.236C823.924 225.894 823.266 226.406 822.428 226.77C821.591 227.128 820.635 227.307 819.561 227.307C818.52 227.307 817.586 227.137 816.762 226.799C815.937 226.453 815.282 225.977 814.796 225.37C814.317 224.756 814.064 224.047 814.039 223.241ZM846.825 206.75L847.976 208.131C847.528 208.565 847.011 208.869 846.422 209.042C845.834 209.214 845.17 209.32 844.428 209.358C843.687 209.396 842.862 209.435 841.954 209.473C840.932 209.511 840.085 209.761 839.414 210.221C838.742 210.681 838.225 211.346 837.86 212.215C837.496 213.085 837.263 214.152 837.16 215.418H837.352C837.851 214.497 838.541 213.82 839.423 213.385C840.305 212.95 841.251 212.733 842.261 212.733C843.412 212.733 844.447 213.001 845.368 213.538C846.288 214.075 847.017 214.871 847.554 215.926C848.091 216.98 848.359 218.281 848.359 219.828C848.359 221.369 848.084 222.698 847.535 223.817C846.991 224.935 846.227 225.798 845.243 226.406C844.265 227.006 843.118 227.307 841.801 227.307C840.484 227.307 839.33 226.997 838.34 226.377C837.349 225.75 836.579 224.824 836.029 223.596C835.479 222.363 835.204 220.838 835.204 219.023V217.45C835.204 214.171 835.761 211.685 836.873 209.991C837.991 208.297 839.672 207.421 841.916 207.364C842.709 207.338 843.415 207.332 844.035 207.344C844.655 207.357 845.195 207.328 845.655 207.258C846.116 207.188 846.506 207.018 846.825 206.75ZM841.801 225.274C842.689 225.274 843.453 225.05 844.093 224.603C844.738 224.156 845.234 223.526 845.579 222.714C845.924 221.896 846.096 220.934 846.096 219.828C846.096 218.754 845.921 217.84 845.569 217.086C845.224 216.332 844.729 215.756 844.083 215.36C843.437 214.964 842.664 214.766 841.763 214.766C841.104 214.766 840.513 214.877 839.989 215.101C839.465 215.325 839.017 215.654 838.647 216.089C838.276 216.523 837.988 217.054 837.784 217.68C837.585 218.307 837.48 219.023 837.467 219.828C837.467 221.477 837.854 222.797 838.627 223.788C839.401 224.779 840.459 225.274 841.801 225.274ZM854.083 223.663L861.178 212.273H863.786V227H861.524V215.609L854.467 227H851.821V212.273H854.083V223.663ZM867.01 223.241H869.427C869.478 223.906 869.778 224.411 870.328 224.756C870.884 225.102 871.606 225.274 872.495 225.274C873.402 225.274 874.179 225.089 874.825 224.718C875.47 224.341 875.793 223.734 875.793 222.896C875.793 222.404 875.672 221.976 875.429 221.612C875.186 221.241 874.844 220.953 874.403 220.749C873.962 220.544 873.441 220.442 872.84 220.442H870.309V218.409H872.84C873.741 218.409 874.406 218.205 874.834 217.795C875.269 217.386 875.486 216.875 875.486 216.261C875.486 215.603 875.253 215.076 874.786 214.679C874.32 214.277 873.658 214.075 872.802 214.075C871.939 214.075 871.22 214.27 870.644 214.66C870.069 215.044 869.765 215.539 869.733 216.146H867.356C867.381 215.354 867.624 214.654 868.084 214.047C868.545 213.433 869.171 212.953 869.964 212.608C870.756 212.257 871.664 212.081 872.687 212.081C873.722 212.081 874.62 212.263 875.381 212.627C876.148 212.985 876.739 213.474 877.155 214.094C877.576 214.708 877.787 215.405 877.787 216.185C877.787 217.016 877.554 217.687 877.087 218.198C876.621 218.71 876.036 219.074 875.333 219.291V219.445C875.889 219.483 876.372 219.662 876.781 219.982C877.196 220.295 877.519 220.707 877.749 221.218C877.979 221.723 878.094 222.283 878.094 222.896C878.094 223.791 877.855 224.571 877.375 225.236C876.896 225.894 876.237 226.406 875.4 226.77C874.563 227.128 873.607 227.307 872.533 227.307C871.491 227.307 870.558 227.137 869.733 226.799C868.909 226.453 868.254 225.977 867.768 225.37C867.288 224.756 867.036 224.047 867.01 223.241ZM891.129 218.601V220.71H882.999V218.601H891.129ZM883.535 212.273V227H881.273V212.273H883.535ZM892.855 212.273V227H890.592V212.273H892.855ZM903.162 227.307C901.743 227.307 900.519 226.994 899.49 226.367C898.467 225.734 897.678 224.852 897.122 223.721C896.572 222.583 896.297 221.26 896.297 219.751C896.297 218.243 896.572 216.913 897.122 215.763C897.678 214.606 898.451 213.705 899.442 213.059C900.439 212.407 901.603 212.081 902.932 212.081C903.699 212.081 904.457 212.209 905.205 212.464C905.952 212.72 906.633 213.136 907.247 213.711C907.86 214.28 908.349 215.034 908.714 215.974C909.078 216.913 909.26 218.07 909.26 219.445V220.403H897.908V218.447H906.959C906.959 217.616 906.793 216.875 906.461 216.223C906.135 215.571 905.668 215.056 905.061 214.679C904.46 214.302 903.75 214.114 902.932 214.114C902.031 214.114 901.251 214.337 900.593 214.785C899.941 215.226 899.439 215.801 899.087 216.511C898.736 217.22 898.56 217.981 898.56 218.793V220.097C898.56 221.209 898.752 222.152 899.135 222.925C899.525 223.692 900.065 224.277 900.756 224.68C901.446 225.076 902.248 225.274 903.162 225.274C903.757 225.274 904.294 225.191 904.773 225.025C905.259 224.852 905.678 224.597 906.029 224.258C906.381 223.913 906.652 223.484 906.844 222.973L909.03 223.587C908.8 224.328 908.413 224.98 907.87 225.543C907.327 226.099 906.655 226.533 905.856 226.847C905.057 227.153 904.159 227.307 903.162 227.307ZM918.685 227.307C917.305 227.307 916.116 226.981 915.119 226.329C914.121 225.677 913.354 224.779 912.817 223.635C912.28 222.49 912.012 221.183 912.012 219.713C912.012 218.217 912.287 216.897 912.837 215.753C913.393 214.603 914.166 213.705 915.157 213.059C916.154 212.407 917.317 212.081 918.647 212.081C919.682 212.081 920.616 212.273 921.447 212.656C922.278 213.04 922.958 213.577 923.489 214.267C924.019 214.957 924.349 215.763 924.477 216.683H922.214C922.041 216.012 921.658 215.418 921.063 214.9C920.475 214.376 919.682 214.114 918.685 214.114C917.803 214.114 917.03 214.344 916.365 214.804C915.707 215.258 915.192 215.9 914.821 216.731C914.457 217.556 914.275 218.524 914.275 219.636C914.275 220.774 914.454 221.765 914.812 222.609C915.176 223.452 915.687 224.108 916.346 224.574C917.011 225.041 917.79 225.274 918.685 225.274C919.273 225.274 919.807 225.172 920.287 224.967C920.766 224.763 921.172 224.469 921.504 224.085C921.837 223.702 922.073 223.241 922.214 222.705H924.477C924.349 223.574 924.032 224.357 923.527 225.054C923.029 225.744 922.367 226.294 921.543 226.703C920.724 227.105 919.772 227.307 918.685 227.307ZM936.222 217.527V219.636H927.631V217.527H936.222ZM948.257 223.932L953.397 212.273H955.544L949.178 227H947.337L941.085 212.273H943.195L948.257 223.932ZM942.466 212.273V227H940.203V212.273H942.466ZM954.049 227V212.273H956.311V227H954.049ZM966.436 227.307C965.107 227.307 963.94 226.99 962.937 226.358C961.939 225.725 961.16 224.839 960.597 223.702C960.041 222.564 959.763 221.234 959.763 219.713C959.763 218.179 960.041 216.84 960.597 215.696C961.16 214.551 961.939 213.663 962.937 213.03C963.94 212.397 965.107 212.081 966.436 212.081C967.766 212.081 968.929 212.397 969.926 213.03C970.93 213.663 971.71 214.551 972.266 215.696C972.828 216.84 973.11 218.179 973.11 219.713C973.11 221.234 972.828 222.564 972.266 223.702C971.71 224.839 970.93 225.725 969.926 226.358C968.929 226.99 967.766 227.307 966.436 227.307ZM966.436 225.274C967.446 225.274 968.277 225.015 968.929 224.498C969.581 223.98 970.064 223.299 970.377 222.455C970.69 221.612 970.847 220.697 970.847 219.713C970.847 218.729 970.69 217.811 970.377 216.961C970.064 216.111 969.581 215.424 968.929 214.9C968.277 214.376 967.446 214.114 966.436 214.114C965.426 214.114 964.595 214.376 963.943 214.9C963.291 215.424 962.809 216.111 962.496 216.961C962.182 217.811 962.026 218.729 962.026 219.713C962.026 220.697 962.182 221.612 962.496 222.455C962.809 223.299 963.291 223.98 963.943 224.498C964.595 225.015 965.426 225.274 966.436 225.274ZM974.991 231.219V224.891H976.219C976.519 224.577 976.778 224.239 976.995 223.874C977.212 223.51 977.401 223.078 977.561 222.58C977.727 222.075 977.868 221.461 977.983 220.739C978.098 220.01 978.2 219.131 978.29 218.102L978.788 212.273H988.146V224.891H990.409V231.219H988.146V227H977.254V231.219H974.991ZM978.788 224.891H985.883V214.382H980.898L980.514 218.102C980.354 219.643 980.156 220.988 979.92 222.139C979.683 223.289 979.306 224.207 978.788 224.891ZM999.587 227.307C998.168 227.307 996.944 226.994 995.915 226.367C994.892 225.734 994.103 224.852 993.547 223.721C992.997 222.583 992.722 221.26 992.722 219.751C992.722 218.243 992.997 216.913 993.547 215.763C994.103 214.606 994.876 213.705 995.867 213.059C996.864 212.407 998.027 212.081 999.357 212.081C1000.12 212.081 1000.88 212.209 1001.63 212.464C1002.38 212.72 1003.06 213.136 1003.67 213.711C1004.29 214.28 1004.77 215.034 1005.14 215.974C1005.5 216.913 1005.69 218.07 1005.69 219.445V220.403H994.333V218.447H1003.38C1003.38 217.616 1003.22 216.875 1002.89 216.223C1002.56 215.571 1002.09 215.056 1001.49 214.679C1000.88 214.302 1000.18 214.114 999.357 214.114C998.456 214.114 997.676 214.337 997.017 214.785C996.365 215.226 995.864 215.801 995.512 216.511C995.161 217.22 994.985 217.981 994.985 218.793V220.097C994.985 221.209 995.177 222.152 995.56 222.925C995.95 223.692 996.49 224.277 997.18 224.68C997.871 225.076 998.673 225.274 999.587 225.274C1000.18 225.274 1000.72 225.191 1001.2 225.025C1001.68 224.852 1002.1 224.597 1002.45 224.258C1002.81 223.913 1003.08 223.484 1003.27 222.973L1005.45 223.587C1005.22 224.328 1004.84 224.98 1004.29 225.543C1003.75 226.099 1003.08 226.533 1002.28 226.847C1001.48 227.153 1000.58 227.307 999.587 227.307ZM1007.82 227V224.891H1008.36C1008.8 224.891 1009.17 224.804 1009.46 224.632C1009.76 224.453 1009.99 224.143 1010.17 223.702C1010.36 223.254 1010.5 222.634 1010.59 221.842C1010.7 221.043 1010.77 220.026 1010.81 218.793L1011.08 212.273H1020.9V227H1018.64V214.382H1013.23L1013 219.636C1012.95 220.844 1012.84 221.909 1012.67 222.829C1012.51 223.743 1012.27 224.51 1011.94 225.13C1011.61 225.75 1011.18 226.217 1010.63 226.53C1010.09 226.843 1009.41 227 1008.59 227H1007.82ZM1027.32 223.663L1034.41 212.273H1037.02V227H1034.76V215.609L1027.7 227H1025.05V212.273H1027.32V223.663Z" fill="white"/>
<path d="M219.385 181.5H537.385C556.991 181.5 572.885 197.394 572.885 217C572.885 236.606 556.991 252.5 537.385 252.5H219.385C199.779 252.5 183.885 236.606 183.885 217C183.885 197.394 199.779 181.5 219.385 181.5Z" stroke="white" stroke-width="3"/>
<path d="M233.897 227V207.364H240.532C242.073 207.364 243.332 207.642 244.31 208.198C245.294 208.748 246.023 209.492 246.496 210.432C246.969 211.371 247.206 212.42 247.206 213.577C247.206 214.734 246.969 215.785 246.496 216.731C246.029 217.677 245.307 218.431 244.329 218.994C243.351 219.55 242.098 219.828 240.571 219.828H235.815V217.719H240.494C241.549 217.719 242.396 217.537 243.035 217.172C243.674 216.808 244.137 216.316 244.425 215.696C244.719 215.069 244.866 214.363 244.866 213.577C244.866 212.79 244.719 212.087 244.425 211.467C244.137 210.847 243.671 210.362 243.025 210.01C242.38 209.652 241.523 209.473 240.456 209.473H236.275V227H233.897ZM255.063 227.345C254.13 227.345 253.283 227.169 252.522 226.818C251.762 226.46 251.157 225.945 250.71 225.274C250.263 224.597 250.039 223.778 250.039 222.82C250.039 221.976 250.205 221.292 250.537 220.768C250.87 220.237 251.314 219.822 251.87 219.521C252.426 219.221 253.04 218.997 253.711 218.85C254.389 218.697 255.069 218.575 255.753 218.486C256.648 218.371 257.374 218.284 257.93 218.227C258.492 218.163 258.901 218.058 259.157 217.911C259.419 217.763 259.55 217.508 259.55 217.143V217.067C259.55 216.121 259.291 215.386 258.774 214.862C258.262 214.337 257.486 214.075 256.444 214.075C255.363 214.075 254.517 214.312 253.903 214.785C253.289 215.258 252.858 215.763 252.608 216.3L250.461 215.533C250.844 214.638 251.356 213.941 251.995 213.442C252.64 212.937 253.344 212.586 254.104 212.388C254.871 212.183 255.626 212.081 256.367 212.081C256.84 212.081 257.383 212.138 257.997 212.254C258.617 212.362 259.215 212.589 259.79 212.934C260.372 213.279 260.854 213.8 261.238 214.497C261.621 215.194 261.813 216.127 261.813 217.297V227H259.55V225.006H259.435C259.282 225.325 259.026 225.667 258.668 226.032C258.31 226.396 257.834 226.706 257.24 226.962C256.645 227.217 255.92 227.345 255.063 227.345ZM255.408 225.312C256.303 225.312 257.057 225.137 257.671 224.785C258.291 224.434 258.758 223.98 259.071 223.424C259.39 222.868 259.55 222.283 259.55 221.669V219.598C259.454 219.713 259.243 219.819 258.917 219.914C258.598 220.004 258.227 220.084 257.805 220.154C257.39 220.218 256.984 220.276 256.588 220.327C256.198 220.371 255.881 220.41 255.638 220.442C255.05 220.518 254.501 220.643 253.989 220.816C253.484 220.982 253.075 221.234 252.762 221.573C252.455 221.906 252.302 222.359 252.302 222.935C252.302 223.721 252.593 224.315 253.174 224.718C253.762 225.114 254.507 225.312 255.408 225.312ZM265.023 223.241H267.439C267.49 223.906 267.79 224.411 268.34 224.756C268.896 225.102 269.619 225.274 270.507 225.274C271.415 225.274 272.191 225.089 272.837 224.718C273.483 224.341 273.805 223.734 273.805 222.896C273.805 222.404 273.684 221.976 273.441 221.612C273.198 221.241 272.856 220.953 272.415 220.749C271.974 220.544 271.453 220.442 270.852 220.442H268.321V218.409H270.852C271.753 218.409 272.418 218.205 272.847 217.795C273.281 217.386 273.498 216.875 273.498 216.261C273.498 215.603 273.265 215.076 272.799 214.679C272.332 214.277 271.67 214.075 270.814 214.075C269.951 214.075 269.232 214.27 268.657 214.66C268.081 215.044 267.778 215.539 267.746 216.146H265.368C265.393 215.354 265.636 214.654 266.097 214.047C266.557 213.433 267.183 212.953 267.976 212.608C268.768 212.257 269.676 212.081 270.699 212.081C271.734 212.081 272.632 212.263 273.393 212.627C274.16 212.985 274.751 213.474 275.167 214.094C275.589 214.708 275.8 215.405 275.8 216.185C275.8 217.016 275.566 217.687 275.1 218.198C274.633 218.71 274.048 219.074 273.345 219.291V219.445C273.901 219.483 274.384 219.662 274.793 219.982C275.208 220.295 275.531 220.707 275.761 221.218C275.991 221.723 276.106 222.283 276.106 222.896C276.106 223.791 275.867 224.571 275.387 225.236C274.908 225.894 274.25 226.406 273.412 226.77C272.575 227.128 271.619 227.307 270.545 227.307C269.503 227.307 268.57 227.137 267.746 226.799C266.921 226.453 266.266 225.977 265.78 225.37C265.301 224.756 265.048 224.047 265.023 223.241ZM279.285 232.523V212.273H281.471V214.612H281.739C281.906 214.357 282.136 214.031 282.43 213.634C282.73 213.232 283.158 212.874 283.715 212.56C284.277 212.241 285.038 212.081 285.997 212.081C287.237 212.081 288.33 212.391 289.276 213.011C290.222 213.631 290.96 214.51 291.491 215.648C292.021 216.786 292.286 218.128 292.286 219.675C292.286 221.234 292.021 222.586 291.491 223.73C290.96 224.868 290.225 225.75 289.285 226.377C288.346 226.997 287.262 227.307 286.035 227.307C285.089 227.307 284.331 227.15 283.763 226.837C283.194 226.517 282.756 226.156 282.449 225.754C282.142 225.344 281.906 225.006 281.739 224.737H281.548V232.523H279.285ZM281.509 219.636C281.509 220.749 281.672 221.73 281.998 222.58C282.324 223.424 282.801 224.085 283.427 224.565C284.053 225.038 284.82 225.274 285.728 225.274C286.674 225.274 287.464 225.025 288.096 224.526C288.736 224.021 289.215 223.344 289.535 222.494C289.861 221.637 290.024 220.685 290.024 219.636C290.024 218.601 289.864 217.668 289.544 216.837C289.231 215.999 288.755 215.338 288.116 214.852C287.483 214.36 286.687 214.114 285.728 214.114C284.808 214.114 284.034 214.347 283.408 214.814C282.781 215.274 282.308 215.919 281.989 216.75C281.669 217.575 281.509 218.537 281.509 219.636ZM300.072 227.345C299.139 227.345 298.292 227.169 297.531 226.818C296.77 226.46 296.166 225.945 295.719 225.274C295.271 224.597 295.048 223.778 295.048 222.82C295.048 221.976 295.214 221.292 295.546 220.768C295.879 220.237 296.323 219.822 296.879 219.521C297.435 219.221 298.049 218.997 298.72 218.85C299.397 218.697 300.078 218.575 300.762 218.486C301.657 218.371 302.383 218.284 302.939 218.227C303.501 218.163 303.91 218.058 304.166 217.911C304.428 217.763 304.559 217.508 304.559 217.143V217.067C304.559 216.121 304.3 215.386 303.782 214.862C303.271 214.337 302.494 214.075 301.453 214.075C300.372 214.075 299.525 214.312 298.912 214.785C298.298 215.258 297.867 215.763 297.617 216.3L295.47 215.533C295.853 214.638 296.364 213.941 297.004 213.442C297.649 212.937 298.352 212.586 299.113 212.388C299.88 212.183 300.634 212.081 301.376 212.081C301.849 212.081 302.392 212.138 303.006 212.254C303.626 212.362 304.223 212.589 304.799 212.934C305.38 213.279 305.863 213.8 306.247 214.497C306.63 215.194 306.822 216.127 306.822 217.297V227H304.559V225.006H304.444C304.291 225.325 304.035 225.667 303.677 226.032C303.319 226.396 302.843 226.706 302.248 226.962C301.654 227.217 300.928 227.345 300.072 227.345ZM300.417 225.312C301.312 225.312 302.066 225.137 302.68 224.785C303.3 224.434 303.766 223.98 304.08 223.424C304.399 222.868 304.559 222.283 304.559 221.669V219.598C304.463 219.713 304.252 219.819 303.926 219.914C303.607 220.004 303.236 220.084 302.814 220.154C302.399 220.218 301.993 220.276 301.596 220.327C301.206 220.371 300.89 220.41 300.647 220.442C300.059 220.518 299.509 220.643 298.998 220.816C298.493 220.982 298.084 221.234 297.771 221.573C297.464 221.906 297.31 222.359 297.31 222.935C297.31 223.721 297.601 224.315 298.183 224.718C298.771 225.114 299.516 225.312 300.417 225.312ZM321.882 206.75L323.033 208.131C322.585 208.565 322.068 208.869 321.48 209.042C320.892 209.214 320.227 209.32 319.485 209.358C318.744 209.396 317.919 209.435 317.012 209.473C315.989 209.511 315.142 209.761 314.471 210.221C313.8 210.681 313.282 211.346 312.917 212.215C312.553 213.085 312.32 214.152 312.218 215.418H312.409C312.908 214.497 313.598 213.82 314.48 213.385C315.362 212.95 316.308 212.733 317.318 212.733C318.469 212.733 319.504 213.001 320.425 213.538C321.345 214.075 322.074 214.871 322.611 215.926C323.148 216.98 323.416 218.281 323.416 219.828C323.416 221.369 323.142 222.698 322.592 223.817C322.048 224.935 321.285 225.798 320.3 226.406C319.322 227.006 318.175 227.307 316.858 227.307C315.541 227.307 314.388 226.997 313.397 226.377C312.406 225.75 311.636 224.824 311.086 223.596C310.536 222.363 310.262 220.838 310.262 219.023V217.45C310.262 214.171 310.818 211.685 311.93 209.991C313.048 208.297 314.73 207.421 316.973 207.364C317.766 207.338 318.472 207.332 319.092 207.344C319.712 207.357 320.252 207.328 320.713 207.258C321.173 207.188 321.563 207.018 321.882 206.75ZM316.858 225.274C317.747 225.274 318.51 225.05 319.15 224.603C319.795 224.156 320.291 223.526 320.636 222.714C320.981 221.896 321.154 220.934 321.154 219.828C321.154 218.754 320.978 217.84 320.626 217.086C320.281 216.332 319.786 215.756 319.14 215.36C318.494 214.964 317.721 214.766 316.82 214.766C316.161 214.766 315.57 214.877 315.046 215.101C314.522 215.325 314.074 215.654 313.704 216.089C313.333 216.523 313.045 217.054 312.841 217.68C312.643 218.307 312.537 219.023 312.524 219.828C312.524 221.477 312.911 222.797 313.684 223.788C314.458 224.779 315.516 225.274 316.858 225.274ZM332.861 227.307C331.531 227.307 330.365 226.99 329.361 226.358C328.364 225.725 327.584 224.839 327.021 223.702C326.465 222.564 326.187 221.234 326.187 219.713C326.187 218.179 326.465 216.84 327.021 215.696C327.584 214.551 328.364 213.663 329.361 213.03C330.365 212.397 331.531 212.081 332.861 212.081C334.19 212.081 335.354 212.397 336.351 213.03C337.354 213.663 338.134 214.551 338.69 215.696C339.253 216.84 339.534 218.179 339.534 219.713C339.534 221.234 339.253 222.564 338.69 223.702C338.134 224.839 337.354 225.725 336.351 226.358C335.354 226.99 334.19 227.307 332.861 227.307ZM332.861 225.274C333.871 225.274 334.702 225.015 335.354 224.498C336.006 223.98 336.488 223.299 336.801 222.455C337.115 221.612 337.271 220.697 337.271 219.713C337.271 218.729 337.115 217.811 336.801 216.961C336.488 216.111 336.006 215.424 335.354 214.9C334.702 214.376 333.871 214.114 332.861 214.114C331.851 214.114 331.02 214.376 330.368 214.9C329.716 215.424 329.233 216.111 328.92 216.961C328.607 217.811 328.45 218.729 328.45 219.713C328.45 220.697 328.607 221.612 328.92 222.455C329.233 223.299 329.716 223.98 330.368 224.498C331.02 225.015 331.851 225.274 332.861 225.274ZM341.063 214.382V212.273H353.029V214.382H348.197V227H345.934V214.382H341.063ZM356.33 227V212.273H358.593V218.678H360.088L365.381 212.273H368.296L362.351 219.368L368.372 227H365.458L360.625 220.787H358.593V227H356.33ZM375.166 227.345C374.232 227.345 373.385 227.169 372.625 226.818C371.864 226.46 371.26 225.945 370.813 225.274C370.365 224.597 370.141 223.778 370.141 222.82C370.141 221.976 370.308 221.292 370.64 220.768C370.972 220.237 371.417 219.822 371.973 219.521C372.529 219.221 373.142 218.997 373.814 218.85C374.491 218.697 375.172 218.575 375.856 218.486C376.751 218.371 377.476 218.284 378.032 218.227C378.595 218.163 379.004 218.058 379.26 217.911C379.522 217.763 379.653 217.508 379.653 217.143V217.067C379.653 216.121 379.394 215.386 378.876 214.862C378.365 214.337 377.588 214.075 376.546 214.075C375.466 214.075 374.619 214.312 374.005 214.785C373.392 215.258 372.96 215.763 372.711 216.3L370.563 215.533C370.947 214.638 371.458 213.941 372.097 213.442C372.743 212.937 373.446 212.586 374.207 212.388C374.974 212.183 375.728 212.081 376.47 212.081C376.943 212.081 377.486 212.138 378.1 212.254C378.72 212.362 379.317 212.589 379.892 212.934C380.474 213.279 380.957 213.8 381.34 214.497C381.724 215.194 381.916 216.127 381.916 217.297V227H379.653V225.006H379.538C379.384 225.325 379.129 225.667 378.771 226.032C378.413 226.396 377.937 226.706 377.342 226.962C376.748 227.217 376.022 227.345 375.166 227.345ZM375.511 225.312C376.406 225.312 377.16 225.137 377.774 224.785C378.394 224.434 378.86 223.98 379.173 223.424C379.493 222.868 379.653 222.283 379.653 221.669V219.598C379.557 219.713 379.346 219.819 379.02 219.914C378.7 220.004 378.33 220.084 377.908 220.154C377.492 220.218 377.086 220.276 376.69 220.327C376.3 220.371 375.984 220.41 375.741 220.442C375.153 220.518 374.603 220.643 374.092 220.816C373.587 220.982 373.178 221.234 372.864 221.573C372.558 221.906 372.404 222.359 372.404 222.935C372.404 223.721 372.695 224.315 373.277 224.718C373.865 225.114 374.609 225.312 375.511 225.312ZM399.622 227.307C398.242 227.307 397.053 226.981 396.056 226.329C395.058 225.677 394.291 224.779 393.754 223.635C393.218 222.49 392.949 221.183 392.949 219.713C392.949 218.217 393.224 216.897 393.774 215.753C394.33 214.603 395.103 213.705 396.094 213.059C397.091 212.407 398.254 212.081 399.584 212.081C400.619 212.081 401.553 212.273 402.384 212.656C403.215 213.04 403.895 213.577 404.426 214.267C404.956 214.957 405.286 215.763 405.414 216.683H403.151C402.978 216.012 402.595 215.418 402 214.9C401.412 214.376 400.619 214.114 399.622 214.114C398.74 214.114 397.967 214.344 397.302 214.804C396.644 215.258 396.129 215.9 395.758 216.731C395.394 217.556 395.212 218.524 395.212 219.636C395.212 220.774 395.391 221.765 395.749 222.609C396.113 223.452 396.624 224.108 397.283 224.574C397.948 225.041 398.727 225.274 399.622 225.274C400.21 225.274 400.744 225.172 401.224 224.967C401.703 224.763 402.109 224.469 402.441 224.085C402.774 223.702 403.01 223.241 403.151 222.705H405.414C405.286 223.574 404.969 224.357 404.464 225.054C403.966 225.744 403.304 226.294 402.48 226.703C401.661 227.105 400.709 227.307 399.622 227.307ZM407.561 214.382V212.273H419.527V214.382H414.695V227H412.432V214.382H407.561ZM422.828 232.523V212.273H425.014V214.612H425.282C425.449 214.357 425.679 214.031 425.973 213.634C426.273 213.232 426.701 212.874 427.258 212.56C427.82 212.241 428.581 212.081 429.54 212.081C430.78 212.081 431.873 212.391 432.819 213.011C433.765 213.631 434.503 214.51 435.033 215.648C435.564 216.786 435.829 218.128 435.829 219.675C435.829 221.234 435.564 222.586 435.033 223.73C434.503 224.868 433.768 225.75 432.828 226.377C431.889 226.997 430.805 227.307 429.578 227.307C428.632 227.307 427.874 227.15 427.305 226.837C426.737 226.517 426.299 226.156 425.992 225.754C425.685 225.344 425.449 225.006 425.282 224.737H425.091V232.523H422.828ZM425.052 219.636C425.052 220.749 425.215 221.73 425.541 222.58C425.867 223.424 426.343 224.085 426.97 224.565C427.596 225.038 428.363 225.274 429.271 225.274C430.217 225.274 431.006 225.025 431.639 224.526C432.278 224.021 432.758 223.344 433.078 222.494C433.403 221.637 433.566 220.685 433.566 219.636C433.566 218.601 433.407 217.668 433.087 216.837C432.774 215.999 432.298 215.338 431.658 214.852C431.026 214.36 430.23 214.114 429.271 214.114C428.351 214.114 427.577 214.347 426.951 214.814C426.324 215.274 425.851 215.919 425.532 216.75C425.212 217.575 425.052 218.537 425.052 219.636ZM443.615 227.345C442.682 227.345 441.835 227.169 441.074 226.818C440.313 226.46 439.709 225.945 439.262 225.274C438.814 224.597 438.591 223.778 438.591 222.82C438.591 221.976 438.757 221.292 439.089 220.768C439.422 220.237 439.866 219.822 440.422 219.521C440.978 219.221 441.592 218.997 442.263 218.85C442.94 218.697 443.621 218.575 444.305 218.486C445.2 218.371 445.926 218.284 446.482 218.227C447.044 218.163 447.453 218.058 447.709 217.911C447.971 217.763 448.102 217.508 448.102 217.143V217.067C448.102 216.121 447.843 215.386 447.325 214.862C446.814 214.337 446.037 214.075 444.995 214.075C443.915 214.075 443.068 214.312 442.455 214.785C441.841 215.258 441.41 215.763 441.16 216.3L439.013 215.533C439.396 214.638 439.907 213.941 440.547 213.442C441.192 212.937 441.895 212.586 442.656 212.388C443.423 212.183 444.177 212.081 444.919 212.081C445.392 212.081 445.935 212.138 446.549 212.254C447.169 212.362 447.766 212.589 448.342 212.934C448.923 213.279 449.406 213.8 449.79 214.497C450.173 215.194 450.365 216.127 450.365 217.297V227H448.102V225.006H447.987C447.834 225.325 447.578 225.667 447.22 226.032C446.862 226.396 446.386 226.706 445.791 226.962C445.197 227.217 444.471 227.345 443.615 227.345ZM443.96 225.312C444.855 225.312 445.609 225.137 446.223 224.785C446.843 224.434 447.309 223.98 447.623 223.424C447.942 222.868 448.102 222.283 448.102 221.669V219.598C448.006 219.713 447.795 219.819 447.469 219.914C447.15 220.004 446.779 220.084 446.357 220.154C445.941 220.218 445.536 220.276 445.139 220.327C444.749 220.371 444.433 220.41 444.19 220.442C443.602 220.518 443.052 220.643 442.541 220.816C442.036 220.982 441.627 221.234 441.314 221.573C441.007 221.906 440.853 222.359 440.853 222.935C440.853 223.721 441.144 224.315 441.726 224.718C442.314 225.114 443.059 225.312 443.96 225.312ZM452.491 214.382V212.273H464.457V214.382H459.624V227H457.362V214.382H452.491ZM473.168 227.307C471.749 227.307 470.525 226.994 469.495 226.367C468.473 225.734 467.683 224.852 467.127 223.721C466.577 222.583 466.303 221.26 466.303 219.751C466.303 218.243 466.577 216.913 467.127 215.763C467.683 214.606 468.457 213.705 469.447 213.059C470.445 212.407 471.608 212.081 472.938 212.081C473.705 212.081 474.462 212.209 475.21 212.464C475.958 212.72 476.638 213.136 477.252 213.711C477.866 214.28 478.355 215.034 478.719 215.974C479.083 216.913 479.266 218.07 479.266 219.445V220.403H467.913V218.447H476.964C476.964 217.616 476.798 216.875 476.466 216.223C476.14 215.571 475.673 215.056 475.066 214.679C474.465 214.302 473.756 214.114 472.938 214.114C472.036 214.114 471.256 214.337 470.598 214.785C469.946 215.226 469.444 215.801 469.093 216.511C468.741 217.22 468.565 217.981 468.565 218.793V220.097C468.565 221.209 468.757 222.152 469.141 222.925C469.531 223.692 470.071 224.277 470.761 224.68C471.451 225.076 472.254 225.274 473.168 225.274C473.762 225.274 474.299 225.191 474.778 225.025C475.264 224.852 475.683 224.597 476.034 224.258C476.386 223.913 476.658 223.484 476.849 222.973L479.036 223.587C478.805 224.328 478.419 224.98 477.875 225.543C477.332 226.099 476.661 226.533 475.862 226.847C475.063 227.153 474.165 227.307 473.168 227.307ZM491.797 212.273V214.382H484.971V227H482.708V212.273H491.797ZM497.363 223.663L504.458 212.273H507.066V227H504.803V215.609L497.747 227H495.1V212.273H497.363V223.663ZM513.473 223.663L520.569 212.273H523.177V227H520.914V215.609L513.857 227H511.211V212.273H513.473V223.663Z" fill="white"/>
<path d="M491.385 346.5H809.385C828.991 346.5 844.885 362.394 844.885 382C844.885 401.606 828.991 417.5 809.385 417.5H491.385C471.779 417.5 455.885 401.606 455.885 382C455.885 362.394 471.779 346.5 491.385 346.5Z" stroke="white" stroke-width="3"/>
<path d="M515.923 378.5H513.545C513.405 377.816 513.159 377.215 512.807 376.697C512.462 376.18 512.04 375.745 511.541 375.393C511.049 375.036 510.503 374.767 509.902 374.588C509.301 374.409 508.675 374.32 508.023 374.32C506.834 374.32 505.757 374.62 504.791 375.221C503.833 375.822 503.069 376.707 502.5 377.877C501.937 379.047 501.656 380.482 501.656 382.182C501.656 383.882 501.937 385.317 502.5 386.487C503.069 387.657 503.833 388.542 504.791 389.143C505.757 389.744 506.834 390.044 508.023 390.044C508.675 390.044 509.301 389.955 509.902 389.776C510.503 389.597 511.049 389.331 511.541 388.98C512.04 388.622 512.462 388.184 512.807 387.666C513.159 387.142 513.405 386.541 513.545 385.864H515.923C515.744 386.867 515.418 387.765 514.945 388.558C514.472 389.35 513.884 390.025 513.181 390.581C512.478 391.131 511.688 391.549 510.813 391.837C509.943 392.125 509.013 392.268 508.023 392.268C506.348 392.268 504.858 391.859 503.555 391.041C502.251 390.223 501.225 389.06 500.477 387.551C499.729 386.043 499.355 384.253 499.355 382.182C499.355 380.111 499.729 378.321 500.477 376.812C501.225 375.304 502.251 374.141 503.555 373.322C504.858 372.504 506.348 372.095 508.023 372.095C509.013 372.095 509.943 372.239 510.813 372.527C511.688 372.814 512.478 373.236 513.181 373.792C513.884 374.342 514.472 375.013 514.945 375.806C515.418 376.592 515.744 377.49 515.923 378.5ZM525.442 392.307C524.112 392.307 522.946 391.99 521.942 391.358C520.945 390.725 520.165 389.839 519.603 388.702C519.046 387.564 518.768 386.234 518.768 384.713C518.768 383.179 519.046 381.84 519.603 380.696C520.165 379.551 520.945 378.663 521.942 378.03C522.946 377.397 524.112 377.081 525.442 377.081C526.771 377.081 527.935 377.397 528.932 378.03C529.935 378.663 530.715 379.551 531.271 380.696C531.834 381.84 532.115 383.179 532.115 384.713C532.115 386.234 531.834 387.564 531.271 388.702C530.715 389.839 529.935 390.725 528.932 391.358C527.935 391.99 526.771 392.307 525.442 392.307ZM525.442 390.274C526.452 390.274 527.283 390.015 527.935 389.498C528.587 388.98 529.069 388.299 529.382 387.455C529.696 386.612 529.852 385.697 529.852 384.713C529.852 383.729 529.696 382.811 529.382 381.961C529.069 381.111 528.587 380.424 527.935 379.9C527.283 379.376 526.452 379.114 525.442 379.114C524.432 379.114 523.601 379.376 522.949 379.9C522.297 380.424 521.814 381.111 521.501 381.961C521.188 382.811 521.031 383.729 521.031 384.713C521.031 385.697 521.188 386.612 521.501 387.455C521.814 388.299 522.297 388.98 522.949 389.498C523.601 390.015 524.432 390.274 525.442 390.274ZM534.649 388.241H537.065C537.116 388.906 537.416 389.411 537.966 389.756C538.522 390.102 539.244 390.274 540.133 390.274C541.041 390.274 541.817 390.089 542.463 389.718C543.108 389.341 543.431 388.734 543.431 387.896C543.431 387.404 543.31 386.976 543.067 386.612C542.824 386.241 542.482 385.953 542.041 385.749C541.6 385.544 541.079 385.442 540.478 385.442H537.947V383.409H540.478C541.379 383.409 542.044 383.205 542.472 382.795C542.907 382.386 543.124 381.875 543.124 381.261C543.124 380.603 542.891 380.076 542.425 379.679C541.958 379.277 541.296 379.075 540.44 379.075C539.577 379.075 538.858 379.27 538.282 379.66C537.707 380.044 537.404 380.539 537.372 381.146H534.994C535.019 380.354 535.262 379.654 535.722 379.047C536.183 378.433 536.809 377.953 537.602 377.608C538.394 377.257 539.302 377.081 540.325 377.081C541.36 377.081 542.258 377.263 543.019 377.627C543.786 377.985 544.377 378.474 544.793 379.094C545.215 379.708 545.426 380.405 545.426 381.185C545.426 382.016 545.192 382.687 544.726 383.198C544.259 383.71 543.674 384.074 542.971 384.291V384.445C543.527 384.483 544.01 384.662 544.419 384.982C544.834 385.295 545.157 385.707 545.387 386.218C545.617 386.723 545.732 387.283 545.732 387.896C545.732 388.791 545.493 389.571 545.013 390.236C544.534 390.894 543.876 391.406 543.038 391.77C542.201 392.128 541.245 392.307 540.171 392.307C539.129 392.307 538.196 392.137 537.372 391.799C536.547 391.453 535.892 390.977 535.406 390.37C534.927 389.756 534.674 389.047 534.649 388.241ZM547.338 396.219V389.891H548.566C548.866 389.577 549.125 389.239 549.342 388.874C549.56 388.51 549.748 388.078 549.908 387.58C550.074 387.075 550.215 386.461 550.33 385.739C550.445 385.01 550.547 384.131 550.637 383.102L551.135 377.273H560.493V389.891H562.756V396.219H560.493V392H549.601V396.219H547.338ZM551.135 389.891H558.23V379.382H553.245L552.861 383.102C552.701 384.643 552.503 385.988 552.267 387.139C552.03 388.289 551.653 389.207 551.135 389.891ZM570.093 392.345C569.16 392.345 568.313 392.169 567.552 391.818C566.792 391.46 566.188 390.945 565.74 390.274C565.293 389.597 565.069 388.778 565.069 387.82C565.069 386.976 565.235 386.292 565.568 385.768C565.9 385.237 566.344 384.822 566.9 384.521C567.457 384.221 568.07 383.997 568.741 383.85C569.419 383.697 570.1 383.575 570.784 383.486C571.679 383.371 572.404 383.284 572.96 383.227C573.523 383.163 573.932 383.058 574.187 382.911C574.449 382.763 574.581 382.508 574.581 382.143V382.067C574.581 381.121 574.322 380.386 573.804 379.862C573.293 379.337 572.516 379.075 571.474 379.075C570.394 379.075 569.547 379.312 568.933 379.785C568.32 380.258 567.888 380.763 567.639 381.3L565.491 380.533C565.875 379.638 566.386 378.941 567.025 378.442C567.671 377.937 568.374 377.586 569.134 377.388C569.902 377.183 570.656 377.081 571.397 377.081C571.87 377.081 572.414 377.138 573.027 377.254C573.647 377.362 574.245 377.589 574.82 377.934C575.402 378.279 575.884 378.8 576.268 379.497C576.652 380.194 576.843 381.127 576.843 382.297V392H574.581V390.006H574.465C574.312 390.325 574.056 390.667 573.698 391.032C573.34 391.396 572.864 391.706 572.27 391.962C571.675 392.217 570.95 392.345 570.093 392.345ZM570.438 390.312C571.333 390.312 572.088 390.137 572.701 389.785C573.321 389.434 573.788 388.98 574.101 388.424C574.421 387.868 574.581 387.283 574.581 386.669V384.598C574.485 384.713 574.274 384.819 573.948 384.914C573.628 385.004 573.257 385.084 572.835 385.154C572.42 385.218 572.014 385.276 571.618 385.327C571.228 385.371 570.911 385.41 570.669 385.442C570.081 385.518 569.531 385.643 569.019 385.816C568.514 385.982 568.105 386.234 567.792 386.573C567.485 386.906 567.332 387.359 567.332 387.935C567.332 388.721 567.623 389.315 568.204 389.718C568.793 390.114 569.537 390.312 570.438 390.312ZM590.83 383.601V385.71H582.699V383.601H590.83ZM583.236 377.273V392H580.973V377.273H583.236ZM592.556 377.273V392H590.293V377.273H592.556ZM598.951 388.663L606.046 377.273H608.654V392H606.391V380.609L599.335 392H596.688V377.273H598.951V388.663ZM618.973 392.307C617.554 392.307 616.33 391.994 615.301 391.367C614.278 390.734 613.489 389.852 612.933 388.721C612.383 387.583 612.108 386.26 612.108 384.751C612.108 383.243 612.383 381.913 612.933 380.763C613.489 379.606 614.262 378.705 615.253 378.059C616.25 377.407 617.414 377.081 618.743 377.081C619.51 377.081 620.268 377.209 621.016 377.464C621.763 377.72 622.444 378.136 623.058 378.711C623.671 379.28 624.16 380.034 624.525 380.974C624.889 381.913 625.071 383.07 625.071 384.445V385.403H613.719V383.447H622.77C622.77 382.616 622.604 381.875 622.272 381.223C621.946 380.571 621.479 380.056 620.872 379.679C620.271 379.302 619.561 379.114 618.743 379.114C617.842 379.114 617.062 379.337 616.404 379.785C615.752 380.226 615.25 380.801 614.898 381.511C614.547 382.22 614.371 382.981 614.371 383.793V385.097C614.371 386.209 614.563 387.152 614.946 387.925C615.336 388.692 615.876 389.277 616.567 389.68C617.257 390.076 618.059 390.274 618.973 390.274C619.568 390.274 620.105 390.191 620.584 390.025C621.07 389.852 621.489 389.597 621.84 389.258C622.192 388.913 622.463 388.484 622.655 387.973L624.841 388.587C624.611 389.328 624.224 389.98 623.681 390.543C623.138 391.099 622.467 391.533 621.668 391.847C620.869 392.153 619.97 392.307 618.973 392.307ZM636.414 372.364H638.753V387.82H638.945L649.684 372.364H651.985V392H649.607V376.582H649.415L638.715 392H636.414V372.364ZM656.743 372.364H659.083V387.82H659.274L670.013 372.364H672.314V392H669.936V376.582H669.744L659.044 392H656.743V372.364ZM685.203 382.527V384.636H676.612V382.527H685.203ZM689.184 397.523V377.273H691.37V379.612H691.639C691.805 379.357 692.035 379.031 692.329 378.634C692.63 378.232 693.058 377.874 693.614 377.56C694.176 377.241 694.937 377.081 695.896 377.081C697.136 377.081 698.229 377.391 699.175 378.011C700.121 378.631 700.859 379.51 701.39 380.648C701.92 381.786 702.186 383.128 702.186 384.675C702.186 386.234 701.92 387.586 701.39 388.73C700.859 389.868 700.124 390.75 699.185 391.377C698.245 391.997 697.162 392.307 695.934 392.307C694.988 392.307 694.231 392.15 693.662 391.837C693.093 391.517 692.655 391.156 692.348 390.754C692.042 390.344 691.805 390.006 691.639 389.737H691.447V397.523H689.184ZM691.409 384.636C691.409 385.749 691.572 386.73 691.898 387.58C692.224 388.424 692.7 389.085 693.326 389.565C693.953 390.038 694.72 390.274 695.627 390.274C696.574 390.274 697.363 390.025 697.996 389.526C698.635 389.021 699.114 388.344 699.434 387.494C699.76 386.637 699.923 385.685 699.923 384.636C699.923 383.601 699.763 382.668 699.444 381.837C699.13 380.999 698.654 380.338 698.015 379.852C697.382 379.36 696.586 379.114 695.627 379.114C694.707 379.114 693.934 379.347 693.307 379.814C692.681 380.274 692.208 380.919 691.888 381.75C691.569 382.575 691.409 383.537 691.409 384.636ZM711.812 392.307C710.393 392.307 709.169 391.994 708.14 391.367C707.117 390.734 706.328 389.852 705.772 388.721C705.222 387.583 704.947 386.26 704.947 384.751C704.947 383.243 705.222 381.913 705.772 380.763C706.328 379.606 707.101 378.705 708.092 378.059C709.089 377.407 710.252 377.081 711.582 377.081C712.349 377.081 713.107 377.209 713.854 377.464C714.602 377.72 715.283 378.136 715.897 378.711C716.51 379.28 716.999 380.034 717.364 380.974C717.728 381.913 717.91 383.07 717.91 384.445V385.403H706.558V383.447H715.609C715.609 382.616 715.443 381.875 715.11 381.223C714.784 380.571 714.318 380.056 713.711 379.679C713.11 379.302 712.4 379.114 711.582 379.114C710.681 379.114 709.901 379.337 709.243 379.785C708.591 380.226 708.089 380.801 707.737 381.511C707.386 382.22 707.21 382.981 707.21 383.793V385.097C707.21 386.209 707.402 387.152 707.785 387.925C708.175 388.692 708.715 389.277 709.406 389.68C710.096 390.076 710.898 390.274 711.812 390.274C712.407 390.274 712.944 390.191 713.423 390.025C713.909 389.852 714.327 389.597 714.679 389.258C715.031 388.913 715.302 388.484 715.494 387.973L717.68 388.587C717.45 389.328 717.063 389.98 716.52 390.543C715.977 391.099 715.305 391.533 714.506 391.847C713.707 392.153 712.809 392.307 711.812 392.307ZM721.352 377.273H723.615V389.891H729.176V377.273H731.439V389.891H737V377.273H739.263V392H721.352V377.273ZM749.57 392.307C748.151 392.307 746.927 391.994 745.898 391.367C744.875 390.734 744.086 389.852 743.529 388.721C742.98 387.583 742.705 386.26 742.705 384.751C742.705 383.243 742.98 381.913 743.529 380.763C744.086 379.606 744.859 378.705 745.85 378.059C746.847 377.407 748.01 377.081 749.34 377.081C750.107 377.081 750.864 377.209 751.612 377.464C752.36 377.72 753.041 378.136 753.654 378.711C754.268 379.28 754.757 380.034 755.121 380.974C755.486 381.913 755.668 383.07 755.668 384.445V385.403H744.316V383.447H753.367C753.367 382.616 753.201 381.875 752.868 381.223C752.542 380.571 752.076 380.056 751.468 379.679C750.868 379.302 750.158 379.114 749.34 379.114C748.439 379.114 747.659 379.337 747 379.785C746.348 380.226 745.847 380.801 745.495 381.511C745.143 382.22 744.968 382.981 744.968 383.793V385.097C744.968 386.209 745.159 387.152 745.543 387.925C745.933 388.692 746.473 389.277 747.163 389.68C747.854 390.076 748.656 390.274 749.57 390.274C750.164 390.274 750.701 390.191 751.181 390.025C751.667 389.852 752.085 389.597 752.437 389.258C752.788 388.913 753.06 388.484 753.252 387.973L755.438 388.587C755.208 389.328 754.821 389.98 754.278 390.543C753.734 391.099 753.063 391.533 752.264 391.847C751.465 392.153 750.567 392.307 749.57 392.307ZM768.967 383.601V385.71H760.836V383.601H768.967ZM761.373 377.273V392H759.11V377.273H761.373ZM770.692 377.273V392H768.43V377.273H770.692ZM777.088 388.663L784.183 377.273H786.791V392H784.528V380.609L777.471 392H774.825V377.273H777.088V388.663ZM799.795 392V379.344H795.883C795.001 379.344 794.307 379.548 793.802 379.957C793.297 380.366 793.045 380.929 793.045 381.645C793.045 382.348 793.272 382.901 793.725 383.304C794.186 383.706 794.815 383.908 795.614 383.908H800.37V386.017H795.614C794.617 386.017 793.757 385.841 793.035 385.49C792.313 385.138 791.757 384.636 791.367 383.984C790.977 383.326 790.782 382.546 790.782 381.645C790.782 380.737 790.986 379.957 791.396 379.305C791.805 378.653 792.389 378.152 793.15 377.8C793.917 377.449 794.828 377.273 795.883 377.273H801.942V392H799.795ZM789.976 392L794.157 384.675H796.611L792.431 392H789.976Z" fill="white"/>
<path d="M711.385 508.5H1029.38C1048.99 508.5 1064.88 524.394 1064.88 544C1064.88 563.606 1048.99 579.5 1029.38 579.5H711.385C691.779 579.5 675.885 563.606 675.885 544C675.885 524.394 691.779 508.5 711.385 508.5Z" stroke="white" stroke-width="3"/>
<path d="M761.476 544.182C761.476 546.253 761.102 548.043 760.354 549.551C759.607 551.06 758.581 552.223 757.277 553.041C755.973 553.859 754.483 554.268 752.809 554.268C751.134 554.268 749.645 553.859 748.341 553.041C747.037 552.223 746.011 551.06 745.263 549.551C744.515 548.043 744.141 546.253 744.141 544.182C744.141 542.111 744.515 540.321 745.263 538.812C746.011 537.304 747.037 536.141 748.341 535.322C749.645 534.504 751.134 534.095 752.809 534.095C754.483 534.095 755.973 534.504 757.277 535.322C758.581 536.141 759.607 537.304 760.354 538.812C761.102 540.321 761.476 542.111 761.476 544.182ZM759.175 544.182C759.175 542.482 758.891 541.047 758.322 539.877C757.759 538.707 756.995 537.822 756.03 537.221C755.071 536.62 753.998 536.32 752.809 536.32C751.62 536.32 750.543 536.62 749.578 537.221C748.619 537.822 747.855 538.707 747.286 539.877C746.723 541.047 746.442 542.482 746.442 544.182C746.442 545.882 746.723 547.317 747.286 548.487C747.855 549.657 748.619 550.542 749.578 551.143C750.543 551.744 751.62 552.044 752.809 552.044C753.998 552.044 755.071 551.744 756.03 551.143C756.995 550.542 757.759 549.657 758.322 548.487C758.891 547.317 759.175 545.882 759.175 544.182ZM776.098 533.75L777.249 535.131C776.801 535.565 776.283 535.869 775.695 536.042C775.107 536.214 774.443 536.32 773.701 536.358C772.96 536.396 772.135 536.435 771.227 536.473C770.205 536.511 769.358 536.761 768.687 537.221C768.015 537.681 767.498 538.346 767.133 539.215C766.769 540.085 766.536 541.152 766.433 542.418H766.625C767.124 541.497 767.814 540.82 768.696 540.385C769.578 539.95 770.524 539.733 771.534 539.733C772.685 539.733 773.72 540.001 774.641 540.538C775.561 541.075 776.29 541.871 776.827 542.926C777.364 543.98 777.632 545.281 777.632 546.828C777.632 548.369 777.357 549.698 776.808 550.817C776.264 551.935 775.5 552.798 774.516 553.406C773.538 554.006 772.391 554.307 771.074 554.307C769.757 554.307 768.603 553.997 767.613 553.377C766.622 552.75 765.852 551.824 765.302 550.596C764.752 549.363 764.477 547.838 764.477 546.023V544.45C764.477 541.171 765.033 538.685 766.146 536.991C767.264 535.297 768.945 534.421 771.189 534.364C771.982 534.338 772.688 534.332 773.308 534.344C773.928 534.357 774.468 534.328 774.928 534.258C775.389 534.188 775.778 534.018 776.098 533.75ZM771.074 552.274C771.962 552.274 772.726 552.05 773.366 551.603C774.011 551.156 774.506 550.526 774.852 549.714C775.197 548.896 775.369 547.934 775.369 546.828C775.369 545.754 775.194 544.84 774.842 544.086C774.497 543.332 774.002 542.756 773.356 542.36C772.71 541.964 771.937 541.766 771.036 541.766C770.377 541.766 769.786 541.877 769.262 542.101C768.738 542.325 768.29 542.654 767.919 543.089C767.549 543.523 767.261 544.054 767.057 544.68C766.858 545.307 766.753 546.023 766.74 546.828C766.74 548.477 767.127 549.797 767.9 550.788C768.674 551.779 769.732 552.274 771.074 552.274ZM782.551 559.523C782.167 559.523 781.825 559.491 781.525 559.427C781.225 559.369 781.017 559.312 780.902 559.254L781.477 557.26C782.027 557.401 782.513 557.452 782.934 557.413C783.356 557.375 783.73 557.186 784.056 556.848C784.389 556.515 784.692 555.975 784.967 555.227L785.389 554.077L779.943 539.273H782.397L786.463 551.009H786.616L790.682 539.273H793.136L786.885 556.148C786.603 556.908 786.255 557.538 785.84 558.037C785.424 558.542 784.941 558.915 784.392 559.158C783.848 559.401 783.235 559.523 782.551 559.523ZM807.027 539.273V554H804.764V539.273H807.027ZM806.145 546.291V548.401C805.633 548.592 805.125 548.762 804.62 548.909C804.115 549.049 803.585 549.161 803.029 549.244C802.472 549.321 801.862 549.359 801.197 549.359C799.529 549.359 798.19 548.909 797.18 548.007C796.176 547.106 795.675 545.754 795.675 543.952V539.234H797.937V543.952C797.937 544.706 798.081 545.326 798.369 545.812C798.656 546.298 799.046 546.659 799.539 546.895C800.031 547.132 800.584 547.25 801.197 547.25C802.156 547.25 803.022 547.164 803.796 546.991C804.575 546.812 805.358 546.579 806.145 546.291ZM817.353 554.307C815.934 554.307 814.71 553.994 813.681 553.367C812.658 552.734 811.869 551.852 811.313 550.721C810.763 549.583 810.488 548.26 810.488 546.751C810.488 545.243 810.763 543.913 811.313 542.763C811.869 541.606 812.642 540.705 813.633 540.059C814.63 539.407 815.794 539.081 817.123 539.081C817.89 539.081 818.648 539.209 819.395 539.464C820.143 539.72 820.824 540.136 821.438 540.711C822.051 541.28 822.54 542.034 822.905 542.974C823.269 543.913 823.451 545.07 823.451 546.445V547.403H812.099V545.447H821.15C821.15 544.616 820.984 543.875 820.651 543.223C820.325 542.571 819.859 542.056 819.252 541.679C818.651 541.302 817.941 541.114 817.123 541.114C816.222 541.114 815.442 541.337 814.784 541.785C814.132 542.226 813.63 542.801 813.278 543.511C812.927 544.22 812.751 544.981 812.751 545.793V547.097C812.751 548.209 812.943 549.152 813.326 549.925C813.716 550.692 814.256 551.277 814.947 551.68C815.637 552.076 816.439 552.274 817.353 552.274C817.948 552.274 818.485 552.191 818.964 552.025C819.45 551.852 819.868 551.597 820.22 551.258C820.572 550.913 820.843 550.484 821.035 549.973L823.221 550.587C822.991 551.328 822.604 551.98 822.061 552.543C821.518 553.099 820.846 553.533 820.047 553.847C819.248 554.153 818.35 554.307 817.353 554.307ZM836.75 545.601V547.71H828.619V545.601H836.75ZM829.156 539.273V554H826.893V539.273H829.156ZM838.476 539.273V554H836.213V539.273H838.476ZM844.871 550.663L851.966 539.273H854.574V554H852.311V542.609L845.254 554H842.608V539.273H844.871V550.663ZM864.893 554.307C863.474 554.307 862.25 553.994 861.221 553.367C860.198 552.734 859.409 551.852 858.853 550.721C858.303 549.583 858.028 548.26 858.028 546.751C858.028 545.243 858.303 543.913 858.853 542.763C859.409 541.606 860.182 540.705 861.173 540.059C862.17 539.407 863.334 539.081 864.663 539.081C865.43 539.081 866.188 539.209 866.935 539.464C867.683 539.72 868.364 540.136 868.978 540.711C869.591 541.28 870.08 542.034 870.445 542.974C870.809 543.913 870.991 545.07 870.991 546.445V547.403H859.639V545.447H868.69C868.69 544.616 868.524 543.875 868.191 543.223C867.866 542.571 867.399 542.056 866.792 541.679C866.191 541.302 865.481 541.114 864.663 541.114C863.762 541.114 862.982 541.337 862.324 541.785C861.672 542.226 861.17 542.801 860.818 543.511C860.467 544.22 860.291 544.981 860.291 545.793V547.097C860.291 548.209 860.483 549.152 860.866 549.925C861.256 550.692 861.796 551.277 862.487 551.68C863.177 552.076 863.979 552.274 864.893 552.274C865.488 552.274 866.025 552.191 866.504 552.025C866.99 551.852 867.408 551.597 867.76 551.258C868.112 550.913 868.383 550.484 868.575 549.973L870.761 550.587C870.531 551.328 870.144 551.98 869.601 552.543C869.058 553.099 868.386 553.533 867.587 553.847C866.788 554.153 865.89 554.307 864.893 554.307ZM882.027 554V539.273H884.29V545.678H885.786L891.078 539.273H893.993L888.048 546.368L894.07 554H891.155L886.323 547.787H884.29V554H882.027ZM901.906 554.307C900.576 554.307 899.409 553.99 898.406 553.358C897.409 552.725 896.629 551.839 896.066 550.702C895.51 549.564 895.232 548.234 895.232 546.713C895.232 545.179 895.51 543.84 896.066 542.696C896.629 541.551 897.409 540.663 898.406 540.03C899.409 539.397 900.576 539.081 901.906 539.081C903.235 539.081 904.398 539.397 905.396 540.03C906.399 540.663 907.179 541.551 907.735 542.696C908.298 543.84 908.579 545.179 908.579 546.713C908.579 548.234 908.298 549.564 907.735 550.702C907.179 551.839 906.399 552.725 905.396 553.358C904.398 553.99 903.235 554.307 901.906 554.307ZM901.906 552.274C902.915 552.274 903.746 552.015 904.398 551.498C905.05 550.98 905.533 550.299 905.846 549.455C906.159 548.612 906.316 547.697 906.316 546.713C906.316 545.729 906.159 544.811 905.846 543.961C905.533 543.111 905.05 542.424 904.398 541.9C903.746 541.376 902.915 541.114 901.906 541.114C900.896 541.114 900.065 541.376 899.413 541.9C898.761 542.424 898.278 543.111 897.965 543.961C897.652 544.811 897.495 545.729 897.495 546.713C897.495 547.697 897.652 548.612 897.965 549.455C898.278 550.299 898.761 550.98 899.413 551.498C900.065 552.015 900.896 552.274 901.906 552.274ZM920.087 550.932L925.226 539.273H927.374L921.007 554H919.166L912.915 539.273H915.024L920.087 550.932ZM914.296 539.273V554H912.033V539.273H914.296ZM925.878 554V539.273H928.141V554H925.878ZM936.617 554.345C935.684 554.345 934.837 554.169 934.076 553.818C933.315 553.46 932.711 552.945 932.264 552.274C931.816 551.597 931.593 550.778 931.593 549.82C931.593 548.976 931.759 548.292 932.091 547.768C932.424 547.237 932.868 546.822 933.424 546.521C933.98 546.221 934.594 545.997 935.265 545.85C935.942 545.697 936.623 545.575 937.307 545.486C938.202 545.371 938.927 545.284 939.484 545.227C940.046 545.163 940.455 545.058 940.711 544.911C940.973 544.763 941.104 544.508 941.104 544.143V544.067C941.104 543.121 940.845 542.386 940.327 541.862C939.816 541.337 939.039 541.075 937.997 541.075C936.917 541.075 936.07 541.312 935.457 541.785C934.843 542.258 934.411 542.763 934.162 543.3L932.014 542.533C932.398 541.638 932.909 540.941 933.549 540.442C934.194 539.937 934.897 539.586 935.658 539.388C936.425 539.183 937.179 539.081 937.921 539.081C938.394 539.081 938.937 539.138 939.551 539.254C940.171 539.362 940.768 539.589 941.344 539.934C941.925 540.279 942.408 540.8 942.791 541.497C943.175 542.194 943.367 543.127 943.367 544.297V554H941.104V552.006H940.989C940.835 552.325 940.58 552.667 940.222 553.032C939.864 553.396 939.388 553.706 938.793 553.962C938.199 554.217 937.473 554.345 936.617 554.345ZM936.962 552.312C937.857 552.312 938.611 552.137 939.225 551.785C939.845 551.434 940.311 550.98 940.625 550.424C940.944 549.868 941.104 549.283 941.104 548.669V546.598C941.008 546.713 940.797 546.819 940.471 546.914C940.152 547.004 939.781 547.084 939.359 547.154C938.943 547.218 938.538 547.276 938.141 547.327C937.751 547.371 937.435 547.41 937.192 547.442C936.604 547.518 936.054 547.643 935.543 547.816C935.038 547.982 934.629 548.234 934.316 548.573C934.009 548.906 933.855 549.359 933.855 549.935C933.855 550.721 934.146 551.315 934.728 551.718C935.316 552.114 936.061 552.312 936.962 552.312ZM957.353 545.601V547.71H949.223V545.601H957.353ZM949.76 539.273V554H947.497V539.273H949.76ZM959.079 539.273V554H956.816V539.273H959.079ZM961.639 558.219V551.891H962.866C963.167 551.577 963.426 551.239 963.643 550.874C963.86 550.51 964.049 550.078 964.209 549.58C964.375 549.075 964.516 548.461 964.631 547.739C964.746 547.01 964.848 546.131 964.938 545.102L965.436 539.273H974.794V551.891H977.057V558.219H974.794V554H963.902V558.219H961.639ZM965.436 551.891H972.531V541.382H967.545L967.162 545.102C967.002 546.643 966.804 547.988 966.567 549.139C966.331 550.289 965.954 551.207 965.436 551.891ZM982.016 544.604H986.235C987.961 544.604 989.281 545.042 990.195 545.917C991.109 546.793 991.566 547.902 991.566 549.244C991.566 550.126 991.361 550.929 990.952 551.651C990.543 552.367 989.942 552.939 989.15 553.367C988.357 553.789 987.386 554 986.235 554H980.06V539.273H982.323V551.891H986.235C987.13 551.891 987.865 551.654 988.44 551.181C989.016 550.708 989.303 550.101 989.303 549.359C989.303 548.58 989.016 547.944 988.44 547.451C987.865 546.959 987.13 546.713 986.235 546.713H982.016V544.604ZM993.905 554V539.273H996.168V554H993.905Z" fill="white"/>
<path d="M128.385 508.5H446.385C465.991 508.5 481.885 524.394 481.885 544C481.885 563.606 465.991 579.5 446.385 579.5H128.385C108.779 579.5 92.8848 563.606 92.8848 544C92.8848 524.394 108.779 508.5 128.385 508.5Z" stroke="white" stroke-width="3"/>
<path d="M108.765 554V534.364H115.63C116.998 534.364 118.126 534.6 119.015 535.073C119.903 535.54 120.565 536.169 120.999 536.962C121.434 537.748 121.651 538.621 121.651 539.58C121.651 540.423 121.501 541.12 121.201 541.67C120.907 542.219 120.517 542.654 120.031 542.974C119.552 543.293 119.031 543.53 118.468 543.683V543.875C119.069 543.913 119.673 544.124 120.28 544.508C120.888 544.891 121.396 545.441 121.805 546.157C122.214 546.873 122.418 547.749 122.418 548.784C122.418 549.768 122.195 550.654 121.747 551.44C121.3 552.226 120.594 552.849 119.628 553.31C118.663 553.77 117.407 554 115.86 554H108.765ZM111.143 551.891H115.86C117.413 551.891 118.516 551.59 119.168 550.989C119.826 550.382 120.156 549.647 120.156 548.784C120.156 548.119 119.986 547.506 119.648 546.943C119.309 546.374 118.826 545.92 118.2 545.582C117.573 545.237 116.832 545.064 115.975 545.064H111.143V551.891ZM111.143 542.993H115.553C116.269 542.993 116.915 542.852 117.49 542.571C118.072 542.29 118.532 541.893 118.871 541.382C119.216 540.871 119.389 540.27 119.389 539.58C119.389 538.717 119.088 537.985 118.487 537.384C117.886 536.777 116.934 536.473 115.63 536.473H111.143V542.993ZM135.875 545.601V547.71H127.745V545.601H135.875ZM128.282 539.273V554H126.019V539.273H128.282ZM137.601 539.273V554H135.338V539.273H137.601ZM147.908 554.307C146.489 554.307 145.265 553.994 144.236 553.367C143.213 552.734 142.424 551.852 141.868 550.721C141.318 549.583 141.043 548.26 141.043 546.751C141.043 545.243 141.318 543.913 141.868 542.763C142.424 541.606 143.197 540.705 144.188 540.059C145.185 539.407 146.349 539.081 147.678 539.081C148.445 539.081 149.203 539.209 149.951 539.464C150.698 539.72 151.379 540.136 151.993 540.711C152.606 541.28 153.095 542.034 153.46 542.974C153.824 543.913 154.006 545.07 154.006 546.445V547.403H142.654V545.447H151.705C151.705 544.616 151.539 543.875 151.207 543.223C150.881 542.571 150.414 542.056 149.807 541.679C149.206 541.302 148.496 541.114 147.678 541.114C146.777 541.114 145.997 541.337 145.339 541.785C144.687 542.226 144.185 542.801 143.833 543.511C143.482 544.22 143.306 544.981 143.306 545.793V547.097C143.306 548.209 143.498 549.152 143.881 549.925C144.271 550.692 144.811 551.277 145.502 551.68C146.192 552.076 146.994 552.274 147.908 552.274C148.503 552.274 149.04 552.191 149.519 552.025C150.005 551.852 150.424 551.597 150.775 551.258C151.127 550.913 151.398 550.484 151.59 549.973L153.776 550.587C153.546 551.328 153.159 551.98 152.616 552.543C152.073 553.099 151.402 553.533 150.603 553.847C149.804 554.153 148.905 554.307 147.908 554.307ZM155.876 558.219V551.891H157.103C157.404 551.577 157.663 551.239 157.88 550.874C158.097 550.51 158.286 550.078 158.446 549.58C158.612 549.075 158.752 548.461 158.867 547.739C158.983 547.01 159.085 546.131 159.174 545.102L159.673 539.273H169.031V551.891H171.294V558.219H169.031V554H158.139V558.219H155.876ZM159.673 551.891H166.768V541.382H161.782L161.399 545.102C161.239 546.643 161.041 547.988 160.804 549.139C160.568 550.289 160.191 551.207 159.673 551.891ZM174.297 559.523V539.273H176.483V541.612H176.752C176.918 541.357 177.148 541.031 177.442 540.634C177.742 540.232 178.171 539.874 178.727 539.56C179.289 539.241 180.05 539.081 181.009 539.081C182.249 539.081 183.342 539.391 184.288 540.011C185.234 540.631 185.972 541.51 186.503 542.648C187.033 543.786 187.299 545.128 187.299 546.675C187.299 548.234 187.033 549.586 186.503 550.73C185.972 551.868 185.237 552.75 184.297 553.377C183.358 553.997 182.274 554.307 181.047 554.307C180.101 554.307 179.344 554.15 178.775 553.837C178.206 553.517 177.768 553.156 177.461 552.754C177.154 552.344 176.918 552.006 176.752 551.737H176.56V559.523H174.297ZM176.522 546.636C176.522 547.749 176.685 548.73 177.011 549.58C177.337 550.424 177.813 551.085 178.439 551.565C179.066 552.038 179.833 552.274 180.74 552.274C181.686 552.274 182.476 552.025 183.109 551.526C183.748 551.021 184.227 550.344 184.547 549.494C184.873 548.637 185.036 547.685 185.036 546.636C185.036 545.601 184.876 544.668 184.556 543.837C184.243 542.999 183.767 542.338 183.128 541.852C182.495 541.36 181.699 541.114 180.74 541.114C179.82 541.114 179.046 541.347 178.42 541.814C177.794 542.274 177.321 542.919 177.001 543.75C176.681 544.575 176.522 545.537 176.522 546.636ZM196.925 554.307C195.506 554.307 194.282 553.994 193.253 553.367C192.23 552.734 191.441 551.852 190.884 550.721C190.335 549.583 190.06 548.26 190.06 546.751C190.06 545.243 190.335 543.913 190.884 542.763C191.441 541.606 192.214 540.705 193.205 540.059C194.202 539.407 195.365 539.081 196.695 539.081C197.462 539.081 198.219 539.209 198.967 539.464C199.715 539.72 200.396 540.136 201.009 540.711C201.623 541.28 202.112 542.034 202.476 542.974C202.841 543.913 203.023 545.07 203.023 546.445V547.403H191.671V545.447H200.722C200.722 544.616 200.556 543.875 200.223 543.223C199.897 542.571 199.431 542.056 198.823 541.679C198.223 541.302 197.513 541.114 196.695 541.114C195.794 541.114 195.014 541.337 194.355 541.785C193.703 542.226 193.202 542.801 192.85 543.511C192.498 544.22 192.323 544.981 192.323 545.793V547.097C192.323 548.209 192.514 549.152 192.898 549.925C193.288 550.692 193.828 551.277 194.518 551.68C195.209 552.076 196.011 552.274 196.925 552.274C197.519 552.274 198.056 552.191 198.536 552.025C199.022 551.852 199.44 551.597 199.792 551.258C200.143 550.913 200.415 550.484 200.607 549.973L202.793 550.587C202.563 551.328 202.176 551.98 201.633 552.543C201.089 553.099 200.418 553.533 199.619 553.847C198.82 554.153 197.922 554.307 196.925 554.307ZM216.322 545.601V547.71H208.191V545.601H216.322ZM208.728 539.273V554H206.465V539.273H208.728ZM218.047 539.273V554H215.785V539.273H218.047ZM224.443 550.663L231.538 539.273H234.146V554H231.883V542.609L224.826 554H222.18V539.273H224.443V550.663ZM244.465 554.307C243.046 554.307 241.822 553.994 240.793 553.367C239.77 552.734 238.981 551.852 238.424 550.721C237.875 549.583 237.6 548.26 237.6 546.751C237.6 545.243 237.875 543.913 238.424 542.763C238.981 541.606 239.754 540.705 240.745 540.059C241.742 539.407 242.905 539.081 244.235 539.081C245.002 539.081 245.759 539.209 246.507 539.464C247.255 539.72 247.936 540.136 248.549 540.711C249.163 541.28 249.652 542.034 250.016 542.974C250.381 543.913 250.563 545.07 250.563 546.445V547.403H239.211V545.447H248.262C248.262 544.616 248.096 543.875 247.763 543.223C247.437 542.571 246.971 542.056 246.363 541.679C245.763 541.302 245.053 541.114 244.235 541.114C243.334 541.114 242.554 541.337 241.895 541.785C241.243 542.226 240.742 542.801 240.39 543.511C240.038 544.22 239.863 544.981 239.863 545.793V547.097C239.863 548.209 240.054 549.152 240.438 549.925C240.828 550.692 241.368 551.277 242.058 551.68C242.749 552.076 243.551 552.274 244.465 552.274C245.059 552.274 245.596 552.191 246.076 552.025C246.562 551.852 246.98 551.597 247.332 551.258C247.683 550.913 247.955 550.484 248.147 549.973L250.333 550.587C250.103 551.328 249.716 551.98 249.173 552.543C248.629 553.099 247.958 553.533 247.159 553.847C246.36 554.153 245.462 554.307 244.465 554.307ZM263.862 550.663L270.957 539.273H273.565V554H271.302V542.609L264.245 554H261.599V539.273H263.862V550.663ZM284.459 541.382V539.273H296.425V541.382H291.593V554H289.33V541.382H284.459ZM305.136 554.307C303.717 554.307 302.493 553.994 301.464 553.367C300.441 552.734 299.652 551.852 299.095 550.721C298.546 549.583 298.271 548.26 298.271 546.751C298.271 545.243 298.546 543.913 299.095 542.763C299.652 541.606 300.425 540.705 301.416 540.059C302.413 539.407 303.576 539.081 304.906 539.081C305.673 539.081 306.43 539.209 307.178 539.464C307.926 539.72 308.607 540.136 309.22 540.711C309.834 541.28 310.323 542.034 310.687 542.974C311.052 543.913 311.234 545.07 311.234 546.445V547.403H299.882V545.447H308.933C308.933 544.616 308.767 543.875 308.434 543.223C308.108 542.571 307.642 542.056 307.034 541.679C306.433 541.302 305.724 541.114 304.906 541.114C304.004 541.114 303.225 541.337 302.566 541.785C301.914 542.226 301.413 542.801 301.061 543.511C300.709 544.22 300.534 544.981 300.534 545.793V547.097C300.534 548.209 300.725 549.152 301.109 549.925C301.499 550.692 302.039 551.277 302.729 551.68C303.42 552.076 304.222 552.274 305.136 552.274C305.73 552.274 306.267 552.191 306.747 552.025C307.232 551.852 307.651 551.597 308.003 551.258C308.354 550.913 308.626 550.484 308.818 549.973L311.004 550.587C310.774 551.328 310.387 551.98 309.844 552.543C309.3 553.099 308.629 553.533 307.83 553.847C307.031 554.153 306.133 554.307 305.136 554.307ZM320.659 554.307C319.278 554.307 318.089 553.981 317.092 553.329C316.095 552.677 315.328 551.779 314.791 550.635C314.254 549.49 313.986 548.183 313.986 546.713C313.986 545.217 314.261 543.897 314.81 542.753C315.366 541.603 316.14 540.705 317.131 540.059C318.128 539.407 319.291 539.081 320.621 539.081C321.656 539.081 322.589 539.273 323.42 539.656C324.251 540.04 324.932 540.577 325.463 541.267C325.993 541.957 326.322 542.763 326.45 543.683H324.187C324.015 543.012 323.631 542.418 323.037 541.9C322.449 541.376 321.656 541.114 320.659 541.114C319.777 541.114 319.003 541.344 318.339 541.804C317.68 542.258 317.166 542.9 316.795 543.731C316.431 544.556 316.248 545.524 316.248 546.636C316.248 547.774 316.427 548.765 316.785 549.609C317.15 550.452 317.661 551.108 318.319 551.574C318.984 552.041 319.764 552.274 320.659 552.274C321.247 552.274 321.781 552.172 322.26 551.967C322.74 551.763 323.145 551.469 323.478 551.085C323.81 550.702 324.047 550.241 324.187 549.705H326.45C326.322 550.574 326.006 551.357 325.501 552.054C325.002 552.744 324.341 553.294 323.516 553.703C322.698 554.105 321.746 554.307 320.659 554.307ZM328.598 541.382V539.273H340.564V541.382H335.731V554H333.469V541.382H328.598ZM346.127 550.663L353.222 539.273H355.83V554H353.568V542.609L346.511 554H343.864V539.273H346.127V550.663ZM359.975 559.523V539.273H362.161V541.612H362.429C362.596 541.357 362.826 541.031 363.12 540.634C363.42 540.232 363.848 539.874 364.405 539.56C364.967 539.241 365.728 539.081 366.686 539.081C367.927 539.081 369.02 539.391 369.966 540.011C370.912 540.631 371.65 541.51 372.18 542.648C372.711 543.786 372.976 545.128 372.976 546.675C372.976 548.234 372.711 549.586 372.18 550.73C371.65 551.868 370.915 552.75 369.975 553.377C369.036 553.997 367.952 554.307 366.725 554.307C365.779 554.307 365.021 554.15 364.452 553.837C363.884 553.517 363.446 553.156 363.139 552.754C362.832 552.344 362.596 552.006 362.429 551.737H362.238V559.523H359.975ZM362.199 546.636C362.199 547.749 362.362 548.73 362.688 549.58C363.014 550.424 363.49 551.085 364.117 551.565C364.743 552.038 365.51 552.274 366.418 552.274C367.364 552.274 368.153 552.025 368.786 551.526C369.425 551.021 369.905 550.344 370.224 549.494C370.55 548.637 370.713 547.685 370.713 546.636C370.713 545.601 370.554 544.668 370.234 543.837C369.921 542.999 369.445 542.338 368.805 541.852C368.173 541.36 367.377 541.114 366.418 541.114C365.498 541.114 364.724 541.347 364.098 541.814C363.471 542.274 362.998 542.919 362.679 543.75C362.359 544.575 362.199 545.537 362.199 546.636ZM382.411 554.307C381.081 554.307 379.915 553.99 378.911 553.358C377.914 552.725 377.134 551.839 376.572 550.702C376.016 549.564 375.738 548.234 375.738 546.713C375.738 545.179 376.016 543.84 376.572 542.696C377.134 541.551 377.914 540.663 378.911 540.03C379.915 539.397 381.081 539.081 382.411 539.081C383.74 539.081 384.904 539.397 385.901 540.03C386.905 540.663 387.684 541.551 388.24 542.696C388.803 543.84 389.084 545.179 389.084 546.713C389.084 548.234 388.803 549.564 388.24 550.702C387.684 551.839 386.905 552.725 385.901 553.358C384.904 553.99 383.74 554.307 382.411 554.307ZM382.411 552.274C383.421 552.274 384.252 552.015 384.904 551.498C385.556 550.98 386.038 550.299 386.352 549.455C386.665 548.612 386.821 547.697 386.821 546.713C386.821 545.729 386.665 544.811 386.352 543.961C386.038 543.111 385.556 542.424 384.904 541.9C384.252 541.376 383.421 541.114 382.411 541.114C381.401 541.114 380.57 541.376 379.918 541.9C379.266 542.424 378.783 543.111 378.47 543.961C378.157 544.811 378 545.729 378 546.713C378 547.697 378.157 548.612 378.47 549.455C378.783 550.299 379.266 550.98 379.918 551.498C380.57 552.015 381.401 552.274 382.411 552.274ZM392.538 554V539.273H398.56C400.145 539.273 401.404 539.631 402.337 540.347C403.271 541.062 403.737 542.009 403.737 543.185C403.737 544.08 403.472 544.773 402.941 545.265C402.411 545.751 401.73 546.08 400.899 546.253C401.442 546.33 401.97 546.521 402.481 546.828C402.999 547.135 403.427 547.557 403.766 548.094C404.105 548.624 404.274 549.276 404.274 550.05C404.274 550.804 404.082 551.478 403.699 552.073C403.315 552.667 402.766 553.137 402.05 553.482C401.334 553.827 400.477 554 399.48 554H392.538ZM394.686 551.929H399.48C400.26 551.929 400.87 551.744 401.311 551.373C401.752 551.002 401.973 550.497 401.973 549.858C401.973 549.097 401.752 548.5 401.311 548.065C400.87 547.624 400.26 547.403 399.48 547.403H394.686V551.929ZM394.686 545.447H398.56C399.167 545.447 399.688 545.364 400.122 545.198C400.557 545.026 400.89 544.783 401.12 544.469C401.356 544.15 401.474 543.773 401.474 543.338C401.474 542.718 401.216 542.232 400.698 541.881C400.18 541.523 399.467 541.344 398.56 541.344H394.686V545.447ZM412.033 554.345C411.1 554.345 410.253 554.169 409.492 553.818C408.732 553.46 408.128 552.945 407.68 552.274C407.233 551.597 407.009 550.778 407.009 549.82C407.009 548.976 407.175 548.292 407.508 547.768C407.84 547.237 408.284 546.822 408.84 546.521C409.397 546.221 410.01 545.997 410.681 545.85C411.359 545.697 412.04 545.575 412.724 545.486C413.618 545.371 414.344 545.284 414.9 545.227C415.463 545.163 415.872 545.058 416.127 544.911C416.389 544.763 416.52 544.508 416.52 544.143V544.067C416.52 543.121 416.262 542.386 415.744 541.862C415.232 541.337 414.456 541.075 413.414 541.075C412.334 541.075 411.487 541.312 410.873 541.785C410.259 542.258 409.828 542.763 409.579 543.3L407.431 542.533C407.814 541.638 408.326 540.941 408.965 540.442C409.611 539.937 410.314 539.586 411.074 539.388C411.841 539.183 412.596 539.081 413.337 539.081C413.81 539.081 414.354 539.138 414.967 539.254C415.587 539.362 416.185 539.589 416.76 539.934C417.342 540.279 417.824 540.8 418.208 541.497C418.591 542.194 418.783 543.127 418.783 544.297V554H416.52V552.006H416.405C416.252 552.325 415.996 552.667 415.638 553.032C415.28 553.396 414.804 553.706 414.21 553.962C413.615 554.217 412.89 554.345 412.033 554.345ZM412.378 552.312C413.273 552.312 414.028 552.137 414.641 551.785C415.261 551.434 415.728 550.98 416.041 550.424C416.361 549.868 416.52 549.283 416.52 548.669V546.598C416.425 546.713 416.214 546.819 415.888 546.914C415.568 547.004 415.197 547.084 414.775 547.154C414.36 547.218 413.954 547.276 413.558 547.327C413.168 547.371 412.851 547.41 412.609 547.442C412.02 547.518 411.471 547.643 410.959 547.816C410.454 547.982 410.045 548.234 409.732 548.573C409.425 548.906 409.272 549.359 409.272 549.935C409.272 550.721 409.563 551.315 410.144 551.718C410.732 552.114 411.477 552.312 412.378 552.312ZM432.77 545.601V547.71H424.639V545.601H432.77ZM425.176 539.273V554H422.913V539.273H425.176ZM434.496 539.273V554H432.233V539.273H434.496ZM440.891 550.663L447.986 539.273H450.594V554H448.331V542.609L441.274 554H438.628V539.273H440.891V550.663ZM460.913 554.307C459.494 554.307 458.27 553.994 457.241 553.367C456.218 552.734 455.429 551.852 454.873 550.721C454.323 549.583 454.048 548.26 454.048 546.751C454.048 545.243 454.323 543.913 454.873 542.763C455.429 541.606 456.202 540.705 457.193 540.059C458.19 539.407 459.354 539.081 460.683 539.081C461.45 539.081 462.208 539.209 462.955 539.464C463.703 539.72 464.384 540.136 464.998 540.711C465.611 541.28 466.1 542.034 466.465 542.974C466.829 543.913 467.011 545.07 467.011 546.445V547.403H455.659V545.447H464.71C464.71 544.616 464.544 543.875 464.212 543.223C463.886 542.571 463.419 542.056 462.812 541.679C462.211 541.302 461.501 541.114 460.683 541.114C459.782 541.114 459.002 541.337 458.344 541.785C457.692 542.226 457.19 542.801 456.838 543.511C456.487 544.22 456.311 544.981 456.311 545.793V547.097C456.311 548.209 456.503 549.152 456.886 549.925C457.276 550.692 457.816 551.277 458.507 551.68C459.197 552.076 459.999 552.274 460.913 552.274C461.508 552.274 462.045 552.191 462.524 552.025C463.01 551.852 463.428 551.597 463.78 551.258C464.132 550.913 464.403 550.484 464.595 549.973L466.781 550.587C466.551 551.328 466.164 551.98 465.621 552.543C465.078 553.099 464.406 553.533 463.607 553.847C462.808 554.153 461.91 554.307 460.913 554.307Z" fill="white"/>
<path d="M1121.38 218H1079.88" stroke="white" stroke-width="2" stroke-linecap="round"/>
<path d="M688.867 217.961H572.867M183.866 217.461C183.866 217.461 179.333 217.461 78.863 217.461C-21.607 217.461 -42.6152 382.961 123.366 382.961C289.348 382.961 456.367 382.961 456.367 382.961" stroke="white" stroke-width="2" stroke-linecap="round"/>
<path d="M844.885 382.5H1098.38C1251.38 382.5 1243.38 544 1098.38 544H1064.88M675.385 544L481.885 545" stroke="white" stroke-width="2" stroke-linecap="round"/>
</svg>
