<svg width="39" height="40" viewBox="0 0 39 40" fill="none" xmlns="http://www.w3.org/2000/svg">
<path d="M19.7891 0.104552C20.0754 0.263114 20.3517 0.439426 20.6289 0.613051C20.8129 0.726801 20.9995 0.834926 21.1875 0.941676C21.2418 0.972551 21.296 1.00336 21.3519 1.03518C21.4602 1.09655 21.5688 1.15755 21.6776 1.21818C21.727 1.24624 21.7765 1.2743 21.8274 1.30324C21.8943 1.34068 21.8943 1.34068 21.9625 1.37893C21.9942 1.4018 22.026 1.42468 22.0586 1.4483C22.0586 1.48955 22.0586 1.5308 22.0586 1.5733C22.134 1.59261 22.134 1.59261 22.211 1.61236C22.4471 1.70349 22.6256 1.81968 22.8328 1.96243C23.317 2.29105 23.8213 2.58318 24.337 2.85893C24.5375 2.97149 24.7245 3.09955 24.9141 3.22955C25.1223 3.36461 25.3404 3.47861 25.5606 3.5928C25.7149 3.68055 25.8593 3.77274 26.0062 3.87211C26.3269 4.08843 26.6582 4.28436 26.9922 4.47955C27.1657 4.5813 27.339 4.68305 27.5122 4.78518C27.6298 4.85418 27.7477 4.92249 27.866 4.99024C27.9232 5.02349 27.9804 5.05668 28.0394 5.09086C28.117 5.13536 28.117 5.13536 28.1962 5.1808C28.2333 5.20718 28.2704 5.23361 28.3086 5.2608C28.3086 5.30205 28.3086 5.3433 28.3086 5.3858C28.345 5.39318 28.3815 5.40061 28.419 5.40824C28.612 5.46361 28.7566 5.56505 28.9236 5.67436C29.0124 5.73118 29.1031 5.78505 29.1956 5.83549C29.2394 5.8598 29.2831 5.88411 29.3282 5.90924C29.3679 5.9303 29.4076 5.95143 29.4485 5.97318C29.6725 6.1768 29.737 6.41143 29.764 6.70449C29.7717 6.95105 29.7735 7.1973 29.7732 7.44399C29.7737 7.53886 29.7744 7.63374 29.7751 7.72868C29.7768 7.98536 29.7774 8.24199 29.7778 8.49868C29.7784 8.7673 29.78 9.03586 29.7815 9.30449C29.7842 9.81268 29.786 10.3209 29.7875 10.8291C29.7892 11.4079 29.7919 11.9866 29.7947 12.5653C29.8005 13.7555 29.805 14.9456 29.8086 16.1358C29.8666 16.1489 29.8666 16.1489 29.9258 16.1624C30.0827 16.2048 30.1836 16.2729 30.3164 16.3662C30.5185 16.5051 30.7225 16.6361 30.9336 16.7608C31.135 16.8799 31.3305 17.0037 31.5235 17.1358C31.7824 17.3112 32.0524 17.4574 32.3282 17.6046C32.532 17.7183 32.7217 17.8476 32.9141 17.9796C33.1275 18.118 33.352 18.2339 33.5765 18.3535C33.7879 18.4716 33.9866 18.6041 34.1854 18.7422C34.3062 18.8216 34.4281 18.8864 34.5586 18.9483C34.5586 18.9896 34.5586 19.0308 34.5586 19.0733C34.6179 19.0926 34.6772 19.1119 34.7383 19.1319C34.9336 19.1983 34.9336 19.1983 35.0586 19.2608C35.0586 19.3021 35.0586 19.3433 35.0586 19.3858C35.0949 19.3934 35.1311 19.4011 35.1684 19.4089C35.3122 19.4493 35.4225 19.5034 35.5518 19.5774C35.5961 19.6026 35.6404 19.6278 35.686 19.6537C35.7317 19.6801 35.7773 19.7063 35.8242 19.7334C35.8709 19.76 35.9174 19.7866 35.9654 19.8139C36.0799 19.8792 36.1943 19.945 36.3086 20.0108C36.3086 20.0521 36.3086 20.0933 36.3086 20.1358C36.3412 20.1413 36.3739 20.1469 36.4075 20.1526C36.6141 20.2151 36.7914 20.3206 36.9766 20.4287C37.0154 20.4511 37.0541 20.4735 37.094 20.4966C37.363 20.6533 37.6244 20.8188 37.8809 20.9954C37.9801 21.0624 38.0835 21.1232 38.1875 21.1827C38.2275 21.2084 38.2675 21.2342 38.3086 21.2608C38.3086 21.3021 38.3086 21.3433 38.3086 21.3858C38.3705 21.4064 38.4324 21.4271 38.4961 21.4483C38.5887 21.6334 38.5674 21.7996 38.5682 22.0062C38.5685 22.0512 38.5688 22.0963 38.5691 22.1427C38.5699 22.2945 38.5703 22.4462 38.5707 22.598C38.5712 22.7065 38.5717 22.815 38.5722 22.9235C38.5739 23.2805 38.5749 23.6374 38.5757 23.9944C38.576 24.1172 38.5764 24.24 38.5767 24.3627C38.5781 24.8733 38.5792 25.3839 38.58 25.8945C38.581 26.6268 38.583 27.3591 38.5866 28.0915C38.589 28.6061 38.5902 29.1207 38.5906 29.6353C38.5908 29.9428 38.5915 30.2503 38.5936 30.5578C38.5955 30.8471 38.5959 31.1364 38.5951 31.4257C38.5951 31.5319 38.5956 31.6381 38.5967 31.7442C38.5982 31.8892 38.5976 32.0341 38.5966 32.1791C38.5968 32.2602 38.597 32.3413 38.5972 32.4249C38.538 32.7482 38.3433 32.8742 38.0921 33.0657C38.0411 33.1004 37.9901 33.1352 37.9375 33.1709C37.8834 33.2078 37.8292 33.2447 37.7735 33.2827C37.7232 33.3167 37.6729 33.3507 37.6211 33.3858C37.5825 33.4133 37.5438 33.4409 37.5039 33.4692C37.3389 33.5857 37.266 33.6358 37.0586 33.6358C37.0586 33.677 37.0586 33.7183 37.0586 33.7608C36.9275 33.8467 36.9275 33.8467 36.7422 33.9483C36.3056 34.1953 35.8918 34.4708 35.4766 34.7519C35.2082 34.9335 34.938 35.1113 34.6641 35.2842C34.3923 35.4559 34.1262 35.6341 33.8633 35.8191C33.7461 35.8858 33.7461 35.8858 33.5586 35.8858C33.5586 35.927 33.5586 35.9683 33.5586 36.0108C33.4712 36.0782 33.4712 36.0782 33.3477 36.1514C33.3026 36.1784 33.2575 36.2054 33.211 36.2332C33.1607 36.2629 33.1104 36.2926 33.0586 36.3233C33.0032 36.3575 32.9478 36.3917 32.8907 36.4271C32.4495 36.6983 32.4495 36.6983 32.3086 36.6983C32.3086 36.7395 32.3086 36.7808 32.3086 36.8233C32.1983 36.8957 32.0842 36.9624 31.9688 37.0264C31.5758 37.2493 31.1891 37.4766 30.8399 37.7647C30.7054 37.8689 30.5828 37.9431 30.4336 38.0225C30.1799 38.1589 29.9458 38.3171 29.711 38.4834C28.8858 39.0617 28.8858 39.0617 28.4329 39.0344C27.7991 38.9137 27.2033 38.3794 26.6787 38.0279C26.3972 37.8413 26.1021 37.6777 25.8086 37.5108C25.8086 37.4695 25.8086 37.4283 25.8086 37.3858C25.7726 37.3789 25.7366 37.3721 25.6995 37.3651C25.5411 37.3181 25.4391 37.251 25.3047 37.1553C24.9859 36.9358 24.6508 36.7536 24.3086 36.5733C24.3086 36.532 24.3086 36.4908 24.3086 36.4483C24.2644 36.4317 24.2202 36.4152 24.1746 36.3982C23.6679 36.1854 23.2056 35.8681 22.762 35.5469C22.5535 35.401 22.3357 35.276 22.114 35.1512C22.048 35.1139 21.9821 35.0766 21.9141 35.0381C21.8473 35.0007 21.7805 34.9632 21.7117 34.9246C21.6612 34.8912 21.6107 34.8577 21.5586 34.8233C21.5586 34.782 21.5586 34.7408 21.5586 34.6983C21.5174 34.6841 21.4761 34.6699 21.4336 34.6553C21.0537 34.4891 20.7142 34.2419 20.3711 34.0108C20.3105 33.9708 20.25 33.9309 20.1875 33.8897C20.0092 33.7696 19.8369 33.6439 19.6655 33.5139C19.5431 33.4387 19.4508 33.4074 19.3086 33.3858C19.1518 33.4738 19.0126 33.5628 18.8672 33.667C18.7836 33.7249 18.6999 33.7826 18.6162 33.8404C18.5543 33.8836 18.5543 33.8836 18.4911 33.9277C18.3218 34.0449 18.1499 34.1572 17.9766 34.2686C17.9227 34.3035 17.8688 34.3385 17.8133 34.3745C17.6836 34.4483 17.6836 34.4483 17.5586 34.4483C17.5586 34.4895 17.5586 34.5308 17.5586 34.5733C17.4483 34.6457 17.3342 34.7124 17.2188 34.7764C16.8258 34.9993 16.4391 35.2266 16.0899 35.5147C15.9115 35.6529 15.7247 35.7521 15.5262 35.8584C15.2994 35.9898 15.0914 36.1447 14.8814 36.3011C14.7461 36.3858 14.7461 36.3858 14.5586 36.3858C14.5586 36.427 14.5586 36.4683 14.5586 36.5108C14.4275 36.5967 14.4275 36.5967 14.2422 36.6983C13.8057 36.9452 13.3919 37.2206 12.9769 37.5018C12.8172 37.6097 12.6567 37.7166 12.4961 37.8233C12.4271 37.8692 12.4271 37.8692 12.3567 37.916C12.3164 37.9422 12.276 37.9682 12.2344 37.9952C12.1732 38.0353 12.1732 38.0353 12.1106 38.0762C11.9961 38.1358 11.9961 38.1358 11.8086 38.1358C11.8086 38.177 11.8086 38.2183 11.8086 38.2608C11.6214 38.3653 11.4338 38.4694 11.2461 38.5733C11.1855 38.6069 11.1248 38.6406 11.0623 38.6753C10.9715 38.7254 10.9715 38.7254 10.8789 38.7764C10.8224 38.8077 10.7659 38.8389 10.7075 38.8711C10.4388 39.0104 10.2346 39.0354 9.9336 39.0108C9.61341 38.8915 9.34141 38.6994 9.0586 38.5108C8.92485 38.4282 8.79073 38.3462 8.65629 38.2647C8.43635 38.1307 8.21891 37.9961 8.01173 37.8428C7.85479 37.7311 7.70766 37.6404 7.5391 37.5499C7.26729 37.403 7.01885 37.2321 6.7686 37.0513C6.55779 36.904 6.33804 36.7774 6.11404 36.6512C6.04804 36.6139 5.9821 36.5766 5.9141 36.5381C5.84729 36.5007 5.78054 36.4632 5.71173 36.4246C5.66117 36.3912 5.61066 36.3577 5.5586 36.3233C5.5586 36.282 5.5586 36.2408 5.5586 36.1983C5.49473 36.1758 5.49473 36.1758 5.42948 36.1529C5.20854 36.0569 5.01298 35.9319 4.81254 35.7999C4.77535 35.7757 4.73817 35.7515 4.69985 35.7266C4.52273 35.6112 4.34666 35.4944 4.17116 35.3765C4.03398 35.2858 3.89735 35.2004 3.75391 35.1202C3.68948 35.084 3.62504 35.048 3.5586 35.0108C3.5586 34.9695 3.5586 34.9283 3.5586 34.8858C3.50391 34.8756 3.50391 34.8756 3.44804 34.8652C3.29135 34.8181 3.20467 34.7543 3.07817 34.6514C2.85317 34.4761 2.62154 34.3367 2.36992 34.2032C2.2461 34.1358 2.2461 34.1358 2.0586 34.0108C2.0586 33.9695 2.0586 33.9283 2.0586 33.8858C2.02191 33.8782 1.98516 33.8706 1.94729 33.8628C1.8056 33.8224 1.71223 33.7715 1.58985 33.6905C1.30235 33.5037 1.00441 33.3373 0.705102 33.1702C0.656789 33.1382 0.608415 33.1062 0.558602 33.0733C0.558602 33.032 0.558602 32.9908 0.558602 32.9483C0.52254 32.9444 0.486415 32.9406 0.449227 32.9366C0.243915 32.8624 0.17704 32.755 0.0586024 32.5733C0.0266649 32.3631 0.0266649 32.3631 0.0256024 32.1182C0.0251024 32.073 0.0246027 32.0279 0.0240402 31.9814C0.0226027 31.8303 0.0229772 31.6793 0.0232897 31.5282C0.0226647 31.4198 0.021915 31.3114 0.02104 31.203C0.0191025 30.9087 0.0187898 30.6144 0.0188523 30.3201C0.0188523 30.0744 0.0180401 29.8287 0.0172901 29.5829C0.0156026 29.0032 0.0152896 28.4236 0.0157271 27.8439C0.0161646 27.2459 0.0141024 26.648 0.0107899 26.05C0.0080399 25.5365 0.00703991 25.0231 0.00728991 24.5096C0.00741491 24.2029 0.00691489 23.8962 0.00472739 23.5896C0.00272739 23.3012 0.00285246 23.0129 0.00460246 22.7246C0.00485246 22.6187 0.00441483 22.513 0.00310233 22.4072C-0.00583517 21.6089 -0.00583521 21.6089 0.152477 21.368C0.263227 21.271 0.366102 21.2039 0.496102 21.1358C0.56404 21.0866 0.63179 21.0371 0.699227 20.9874C0.871102 20.8858 0.871102 20.8858 1.0586 20.8858C1.0586 20.8446 1.0586 20.8033 1.0586 20.7608C1.11529 20.7291 1.17191 20.6973 1.23029 20.6646C1.61885 20.4454 1.99904 20.2226 2.36748 19.9705C2.54016 19.8567 2.72029 19.7599 2.90191 19.6612C3.41566 19.3731 3.91073 19.0502 4.40629 18.7322C4.67673 18.561 4.9531 18.4009 5.23048 18.2412C5.51304 18.0769 5.78591 17.9036 6.05641 17.7205C6.55898 17.3858 6.55898 17.3858 6.8086 17.3858C6.8086 17.3446 6.8086 17.3033 6.8086 17.2608C7.16798 17.0733 7.16798 17.0733 7.3086 17.0733C7.3086 17.0321 7.3086 16.9908 7.3086 16.9483C7.41898 16.8759 7.53304 16.8091 7.64848 16.7452C7.94148 16.5794 8.22323 16.406 8.50004 16.2146C8.62023 16.1364 8.74248 16.0739 8.8711 16.0108C8.87135 15.9614 8.87154 15.9121 8.87173 15.8612C8.87685 14.6604 8.8826 13.4596 8.8891 12.2589C8.89223 11.6782 8.89516 11.0976 8.89748 10.5169C8.89954 10.0108 8.90204 9.5048 8.90504 8.99874C8.90666 8.73074 8.90798 8.46274 8.90885 8.19474C8.90967 7.94255 8.91104 7.69036 8.91285 7.43818C8.91341 7.34555 8.91379 7.25293 8.91391 7.1603C8.9141 7.03393 8.91516 6.90761 8.91623 6.78124C8.9166 6.71049 8.91692 6.63974 8.91729 6.56686C8.93967 6.31861 9.00198 6.19055 9.17973 6.01861C9.40716 5.8608 9.64423 5.73174 9.88873 5.6023C10.1042 5.48624 10.3121 5.37018 10.5039 5.2178C10.6211 5.1358 10.6211 5.1358 10.8086 5.1358C10.8086 5.09455 10.8086 5.0533 10.8086 5.0108C11.168 4.8233 11.168 4.8233 11.3086 4.8233C11.3086 4.78205 11.3086 4.7408 11.3086 4.6983C11.3722 4.6653 11.3722 4.6653 11.437 4.63161C11.7403 4.4708 12.0301 4.30555 12.3086 4.10455C12.5757 3.91193 12.852 3.75611 13.1429 3.6023C13.2984 3.51643 13.4435 3.42374 13.5899 3.3233C13.7924 3.18443 13.9983 3.0638 14.2149 2.9483C14.4816 2.8058 14.7314 2.65018 14.9807 2.47955C15.1799 2.34655 15.386 2.22643 15.5921 2.10455C15.7392 2.01499 15.8814 1.92055 16.0235 1.8233C16.282 1.64818 16.5515 1.50211 16.8267 1.35524C17.0389 1.23693 17.2383 1.10424 17.4387 0.967301C17.5795 0.871551 17.7245 0.784739 17.8711 0.698302C17.9118 0.671677 17.9525 0.645114 17.9944 0.617676C18.0388 0.588864 18.0832 0.560051 18.1289 0.530301C18.1704 0.502989 18.2118 0.475676 18.2544 0.447551C18.3711 0.385801 18.3711 0.385802 18.5586 0.385802C18.5586 0.344552 18.5586 0.303302 18.5586 0.260802C18.9931 0.00192657 19.3098 -0.0904484 19.7891 0.104552ZM19.0625 2.61236C18.8482 2.75893 18.6317 2.88886 18.4024 3.0108C18.1858 3.1263 17.9799 3.24693 17.7774 3.3858C17.5201 3.56218 17.2517 3.7078 16.9766 3.85455C16.8207 3.94155 16.6745 4.03486 16.5274 4.1358C16.2707 4.3118 16.003 4.45718 15.7285 4.6033C15.5145 4.72293 15.314 4.85774 15.1133 4.9983C14.9961 5.0733 14.9961 5.0733 14.8086 5.1358C14.8086 5.17705 14.8086 5.2183 14.8086 5.2608C14.7584 5.27368 14.7081 5.28655 14.6563 5.29986C14.42 5.39099 14.2415 5.50724 14.0342 5.65018C13.5311 5.99136 13.0035 6.29643 12.4747 6.59574C12.3033 6.70155 12.1507 6.81949 11.9961 6.9483C12.3654 7.21905 12.7385 7.45524 13.1431 7.66949C13.3446 7.78061 13.5317 7.90724 13.7215 8.03711C13.9571 8.19243 14.2018 8.33174 14.4464 8.47243C14.5627 8.53961 14.678 8.6088 14.792 8.67999C14.9245 8.77111 14.9245 8.77111 15.0586 8.7608C15.0586 8.80205 15.0586 8.8433 15.0586 8.8858C15.1017 8.90849 15.1449 8.93124 15.1892 8.95461C15.4769 9.10849 15.7582 9.26361 16.0274 9.4483C16.2299 9.58711 16.4358 9.70774 16.6524 9.8233C16.9185 9.96518 17.1657 10.1217 17.4141 10.2921C17.5728 10.3949 17.7355 10.4843 17.9024 10.5733C18.1239 10.6914 18.3351 10.8154 18.543 10.9561C18.9381 11.2636 18.9381 11.2636 19.397 11.3724C19.5755 11.3182 19.6963 11.244 19.8477 11.1358C20.0072 11.0225 20.1215 10.9481 20.3086 10.8858C20.3086 10.8446 20.3086 10.8033 20.3086 10.7608C20.3679 10.7414 20.4272 10.7221 20.4883 10.7022C20.6749 10.6437 20.6749 10.6437 20.8086 10.5733C20.8086 10.5321 20.8086 10.4908 20.8086 10.4483C20.884 10.4289 20.884 10.4289 20.961 10.4092C21.2029 10.3158 21.3877 10.1927 21.5999 10.0462C21.7344 9.95617 21.8695 9.8768 22.0117 9.79986C22.3183 9.63324 22.6138 9.45049 22.9102 9.26661C23.1101 9.14261 23.3109 9.01999 23.5117 8.89749C23.8382 8.69699 24.1597 8.48961 24.4805 8.2803C24.7834 8.08293 25.0856 7.89274 25.4046 7.72218C25.637 7.5918 25.8633 7.45186 26.0899 7.31155C26.1349 7.28399 26.1799 7.25643 26.2262 7.22805C26.4612 7.09418 26.4612 7.09418 26.6211 6.8858C26.5854 6.86449 26.5497 6.84324 26.513 6.8213C26.2669 6.67418 26.021 6.52686 25.7781 6.37455C25.7417 6.3518 25.7052 6.32905 25.6677 6.30555C25.5622 6.23955 25.4569 6.1733 25.3516 6.10699C25.1978 6.00043 25.1978 6.00043 25.0586 6.0108C25.0586 5.96955 25.0586 5.9283 25.0586 5.8858C25.0155 5.86305 24.9724 5.84036 24.928 5.81693C24.6404 5.66305 24.359 5.50793 24.0899 5.3233C23.8874 5.18443 23.6815 5.0638 23.4649 4.9483C23.1989 4.80618 22.9497 4.65086 22.7007 4.48099C22.5424 4.37486 22.3815 4.27411 22.2188 4.17486C22.1673 4.14343 22.1159 4.11199 22.0628 4.07961C21.9397 4.00099 21.9397 4.00099 21.8086 4.0108C21.8086 3.96955 21.8086 3.9283 21.8086 3.8858C21.7655 3.86305 21.7224 3.84036 21.678 3.81693C21.3404 3.6363 21.0192 3.4463 20.7037 3.22974C20.4876 3.08974 20.2602 2.97261 20.033 2.85186C19.8862 2.76924 19.7525 2.68099 19.6172 2.58111C19.3562 2.39224 19.3078 2.43936 19.0625 2.61236ZM27.3125 9.06155C26.6438 9.53455 25.9298 9.94255 25.2207 10.3516C25.0677 10.4429 24.9205 10.5392 24.7735 10.6397C24.518 10.8138 24.2513 10.9581 23.9785 11.1033C23.7645 11.2229 23.564 11.3577 23.3633 11.4983C23.2461 11.5733 23.2461 11.5733 23.0586 11.6358C23.0586 11.6771 23.0586 11.7183 23.0586 11.7608C23.0084 11.7737 22.9581 11.7866 22.9063 11.7999C22.6683 11.8917 22.4885 12.0104 22.2799 12.1546C22.1108 12.2677 21.938 12.3701 21.7617 12.4717C21.481 12.6337 21.2024 12.7987 20.9258 12.9678C20.8586 13.0088 20.7914 13.0498 20.7222 13.0921C20.5569 13.1913 20.5569 13.1913 20.4336 13.3233C20.4182 13.4894 20.4102 13.6495 20.4077 13.8159C20.4065 13.8663 20.4054 13.9167 20.4041 13.9686C20.4004 14.1311 20.3975 14.2936 20.3945 14.4561C20.3922 14.5602 20.3897 14.6644 20.3872 14.7686C20.3551 16.1934 20.3737 17.6173 20.4024 19.0421C20.4054 19.1978 20.4084 19.3536 20.4114 19.5093C20.4187 19.8848 20.4261 20.2603 20.4336 20.6358C20.5335 20.5759 20.6333 20.5161 20.7331 20.4562C20.7887 20.4228 20.8443 20.3895 20.9016 20.3551C21.3809 20.0671 21.8552 19.7722 22.3242 19.4678C22.6037 19.2865 22.8861 19.1168 23.1795 18.959C23.3189 18.8799 23.4498 18.7927 23.582 18.7022C23.8946 18.4892 24.2244 18.312 24.5586 18.1358C24.5586 18.0946 24.5586 18.0533 24.5586 18.0108C24.6076 17.9992 24.6566 17.9876 24.707 17.9756C24.9718 17.8706 25.1757 17.7253 25.4046 17.5579C25.747 17.3142 26.1207 17.1187 26.4864 16.9124C26.5249 16.8882 26.5635 16.8639 26.6033 16.8389C26.7461 16.7608 26.7461 16.7608 26.946 16.6951C27.2041 16.5881 27.3979 16.4946 27.5586 16.2608C27.7195 15.7331 27.6617 15.1434 27.6517 14.5987C27.6515 14.4341 27.6518 14.2694 27.6524 14.1047C27.6532 13.7165 27.6498 13.3283 27.645 12.9401C27.6397 12.4978 27.639 12.0556 27.6387 11.6133C27.638 10.7041 27.6315 9.79493 27.6211 8.8858C27.5029 8.8858 27.4039 8.99486 27.3125 9.06155ZM10.9961 8.9483C10.9889 9.88105 10.9833 10.8139 10.9799 11.7467C10.9784 12.1799 10.9761 12.613 10.9725 13.0461C10.9691 13.4639 10.9673 13.8817 10.9665 14.2995C10.9659 14.4591 10.9648 14.6187 10.9631 14.7782C10.9609 15.0014 10.9605 15.2244 10.9607 15.4476C10.9595 15.5139 10.9584 15.5802 10.9572 15.6486C10.9518 16.0085 10.9518 16.0085 11.1463 16.2965C11.2267 16.3407 11.2267 16.3407 11.3086 16.3858C11.3525 16.4244 11.3963 16.4631 11.4414 16.503C11.6633 16.6669 11.8988 16.7902 12.1421 16.9195C12.2778 16.9939 12.4044 17.0711 12.5313 17.1592C12.6705 17.2723 12.6705 17.2723 12.8086 17.2608C12.8086 17.3021 12.8086 17.3433 12.8086 17.3858C12.8755 17.4221 12.8755 17.4221 12.9437 17.459C13.4909 17.7566 13.4909 17.7566 13.75 17.9092C13.9169 18.0209 13.9169 18.0209 14.0586 18.0108C14.0586 18.0521 14.0586 18.0933 14.0586 18.1358C14.1017 18.1585 14.1449 18.1812 14.1892 18.2046C14.4769 18.3585 14.7582 18.5136 15.0274 18.6983C15.2299 18.8371 15.4358 18.9577 15.6524 19.0733C15.9185 19.2152 16.1657 19.3717 16.4141 19.5421C16.6277 19.6806 16.8524 19.7966 17.0769 19.9163C17.2874 20.0338 17.484 20.1669 17.6827 20.303C17.844 20.4091 18.0085 20.4924 18.1836 20.5733C18.2594 20.5113 18.2594 20.5113 18.2539 20.3909C18.2538 20.3379 18.2537 20.2849 18.2537 20.2304C18.2537 20.1698 18.2538 20.1092 18.2539 20.0469C18.2537 19.9799 18.2535 19.9129 18.2532 19.8439C18.2532 19.7738 18.2532 19.7037 18.2532 19.6314C18.2532 19.3984 18.2527 19.1654 18.2522 18.9324C18.2521 18.7714 18.252 18.6103 18.252 18.4492C18.2517 18.0679 18.2513 17.6865 18.2506 17.3051C18.2499 16.871 18.2496 16.4369 18.2493 16.0028C18.2486 15.1096 18.2475 14.2164 18.2461 13.3233C18.1533 13.2924 18.1533 13.2924 18.0586 13.2608C18.0586 13.2196 18.0586 13.1783 18.0586 13.1358C18.0155 13.1131 17.9724 13.0904 17.928 13.0669C17.6404 12.9131 17.359 12.7579 17.0899 12.5733C16.8874 12.4344 16.6815 12.3138 16.4649 12.1983C16.1988 12.0564 15.9516 11.8999 15.7032 11.7296C15.5445 11.6266 15.3817 11.5373 15.2149 11.4483C14.9488 11.3064 14.7016 11.1499 14.4532 10.9796C14.2945 10.8766 14.1317 10.7873 13.9649 10.6983C13.7053 10.5596 13.463 10.4085 13.2202 10.2425C13.0111 10.1044 12.7971 9.97536 12.582 9.84674C12.5432 9.82343 12.5044 9.80018 12.4644 9.77618C12.3502 9.70818 12.2357 9.64068 12.1211 9.5733C12.081 9.5493 12.0408 9.5253 11.9994 9.50055C11.793 9.36805 11.793 9.36805 11.5586 9.3233C11.5586 9.28205 11.5586 9.2408 11.5586 9.1983C11.2802 9.07455 11.2802 9.07455 10.9961 8.9483ZM9.33204 18.3592C9.29635 18.3849 9.26066 18.4106 9.22391 18.4371C9.0781 18.5416 8.92585 18.6349 8.77348 18.7296C8.71866 18.7649 8.66392 18.8002 8.60748 18.8367C8.28185 19.0457 7.95135 19.2467 7.6211 19.4483C7.56629 19.4819 7.51141 19.5155 7.45485 19.5501C7.1896 19.7111 6.92204 19.8643 6.64848 20.0108C6.37466 20.158 6.11785 20.3201 5.86329 20.4983C5.7461 20.5733 5.7461 20.5733 5.5586 20.6358C5.5586 20.6771 5.5586 20.7183 5.5586 20.7608C5.49935 20.7801 5.44004 20.7994 5.37891 20.8194C5.19235 20.8779 5.19235 20.8779 5.0586 20.9483C5.0586 20.9896 5.0586 21.0308 5.0586 21.0733C5.00835 21.0862 4.9581 21.0991 4.90629 21.1124C4.66548 21.2053 4.4816 21.3273 4.27054 21.4734C4.04173 21.6263 3.80116 21.7562 3.5586 21.8858C3.5586 21.927 3.5586 21.9683 3.5586 22.0108C3.37298 22.0727 3.37298 22.0727 3.1836 22.1358C3.27566 22.3808 3.3946 22.4507 3.62504 22.5655C3.84554 22.6762 4.05185 22.7956 4.25592 22.9336C4.58729 23.1577 4.9291 23.3621 5.27348 23.5655C5.36648 23.621 5.36648 23.6211 5.46135 23.6777C5.52041 23.7127 5.57954 23.7477 5.64041 23.7837C5.69379 23.8154 5.74717 23.847 5.80217 23.8796C5.92735 23.9579 5.92735 23.9579 6.0586 23.9483C6.0586 23.9895 6.0586 24.0308 6.0586 24.0733C6.11741 24.1065 6.17623 24.1397 6.23685 24.1739C6.31548 24.2184 6.3941 24.263 6.47266 24.3077C6.51129 24.3294 6.54985 24.3512 6.58967 24.3736C6.83654 24.5139 7.07273 24.6649 7.3086 24.8233C7.41741 24.888 7.52685 24.9519 7.63673 25.0147C9.0356 25.8257 9.0356 25.8257 9.68091 26.2959C9.94204 26.5036 9.94204 26.5036 10.2532 26.5625C10.4134 26.4922 10.5455 26.3886 10.6854 26.2847C10.8112 26.1964 10.939 26.1229 11.0742 26.0499C11.2917 25.9322 11.4996 25.8054 11.707 25.6709C11.937 25.5226 12.1688 25.3857 12.4102 25.2569C12.6762 25.1148 12.9242 24.9578 13.1729 24.7876C13.3502 24.6709 13.5348 24.5716 13.7212 24.4705C13.9524 24.3398 14.1745 24.1954 14.3975 24.0513C14.9385 23.7054 15.5004 23.3905 16.0586 23.0733C16.0586 23.032 16.0586 22.9908 16.0586 22.9483C16.134 22.9289 16.134 22.9289 16.211 22.9092C16.4995 22.7978 16.7563 22.6444 16.9961 22.4483C16.9961 22.407 16.9961 22.3658 16.9961 22.3233C16.8649 22.2312 16.735 22.1474 16.5977 22.0655C16.56 22.0422 16.5223 22.0189 16.4834 21.9949C16.2853 21.8653 16.2853 21.8653 16.0586 21.8233C16.0586 21.782 16.0586 21.7408 16.0586 21.6983C15.9937 21.662 15.9287 21.6257 15.8619 21.5884C15.7738 21.5391 15.6857 21.4898 15.5977 21.4405C15.5522 21.415 15.5068 21.3896 15.46 21.3633C15.1515 21.1899 14.8475 21.0107 14.5474 20.8231C14.437 20.7508 14.437 20.7508 14.3086 20.7608C14.3086 20.7196 14.3086 20.6783 14.3086 20.6358C14.2655 20.6131 14.2224 20.5904 14.178 20.5669C13.8319 20.3817 13.5018 20.1886 13.1819 19.9607C13.0566 19.8846 12.9519 19.8506 12.8086 19.8233C12.8086 19.7821 12.8086 19.7408 12.8086 19.6983C12.6626 19.5991 12.6626 19.5991 12.4766 19.4991C11.9888 19.2222 11.5166 18.9301 11.0625 18.6006C10.9573 18.5287 10.8518 18.4571 10.7461 18.3858C10.6884 18.3434 10.6306 18.301 10.5711 18.2574C10.067 17.9356 9.79085 18.0431 9.33204 18.3592ZM28.2422 18.2452C28.166 18.2917 28.0897 18.3383 28.0135 18.3848C27.9459 18.4264 27.8783 18.4679 27.8086 18.5108C27.726 18.5537 27.643 18.5962 27.5586 18.6358C27.5586 18.6771 27.5586 18.7183 27.5586 18.7608C27.5097 18.7724 27.4607 18.784 27.4102 18.7959C27.1455 18.9009 26.9415 19.0462 26.7127 19.2137C26.5611 19.3215 26.4064 19.4164 26.2461 19.5108C25.9196 19.7151 25.5954 19.9223 25.2774 20.1397C25.0202 20.3128 24.752 20.4577 24.4785 20.6033C24.2645 20.7229 24.064 20.8577 23.8633 20.9983C23.7461 21.0733 23.7461 21.0733 23.5586 21.1358C23.5586 21.1771 23.5586 21.2183 23.5586 21.2608C23.4852 21.2782 23.4852 21.2782 23.4102 21.2959C23.1455 21.4009 22.9415 21.5462 22.7127 21.7137C22.5612 21.8215 22.406 21.916 22.2461 22.0108C22.1455 22.0765 22.0452 22.1429 21.9454 22.21C21.896 22.2431 21.8466 22.2762 21.7957 22.3104C21.7587 22.3352 21.7217 22.3601 21.6836 22.3858C21.8518 22.565 22.0134 22.6939 22.2266 22.8155C22.435 22.9367 22.6372 23.0617 22.836 23.1983C23.0949 23.3737 23.3649 23.5199 23.6407 23.667C23.7966 23.754 23.9427 23.8474 24.0899 23.9483C24.2815 24.0793 24.4747 24.1949 24.6797 24.3037C25.0559 24.5044 25.4175 24.7269 25.78 24.9509C25.9894 25.0802 26.1989 25.2084 26.4129 25.3299C26.6111 25.4426 26.8059 25.5592 27 25.6787C27.0697 25.7216 27.1392 25.7643 27.211 25.8084C27.3664 25.9051 27.5195 26.0044 27.6719 26.1057C27.7307 26.1445 27.7307 26.1445 27.7905 26.1841C27.8663 26.2342 27.9417 26.2849 28.0168 26.3361C28.2222 26.472 28.3038 26.5108 28.5586 26.5108C28.7332 26.4284 28.7332 26.4284 28.9141 26.3155C28.9807 26.2754 29.0472 26.2352 29.1158 26.1939C29.3231 26.0642 29.5272 25.9309 29.7295 25.7937C30.1968 25.4787 30.6761 25.1894 31.1687 24.9158C31.2149 24.8852 31.261 24.8547 31.3086 24.8233C31.3086 24.782 31.3086 24.7408 31.3086 24.6983C31.3917 24.6734 31.3917 24.6734 31.4764 24.648C31.6752 24.5763 31.8248 24.4944 32 24.378C32.253 24.2125 32.5075 24.051 32.7657 23.8936C33.3014 23.5649 33.8325 23.2285 34.3516 22.8741C34.612 22.6979 34.886 22.5533 35.1658 22.4104C35.3252 22.3269 35.3252 22.3269 35.4336 22.1358C35.245 21.918 35.0855 21.8363 34.8086 21.7608C34.8086 21.7195 34.8086 21.6783 34.8086 21.6358C34.7641 21.6116 34.7195 21.5874 34.6736 21.5626C34.1264 21.265 34.1264 21.265 33.8672 21.1124C33.7004 21.0007 33.7004 21.0007 33.5586 21.0108C33.5586 20.9696 33.5586 20.9283 33.5586 20.8858C33.5141 20.8616 33.4695 20.8374 33.4236 20.8126C32.8764 20.515 32.8764 20.515 32.6172 20.3624C32.4504 20.2507 32.4504 20.2507 32.3086 20.2608C32.3086 20.2196 32.3086 20.1783 32.3086 20.1358C32.2655 20.1131 32.2224 20.0904 32.178 20.0669C31.8904 19.9131 31.609 19.7579 31.3399 19.5733C31.1374 19.4344 30.9315 19.3138 30.7149 19.1983C30.453 19.0582 30.2075 18.9061 29.9624 18.7388C29.773 18.6119 29.5805 18.4904 29.3867 18.3702C29.32 18.3286 29.2534 18.287 29.1846 18.2442C29.1224 18.2084 29.0602 18.1726 28.9961 18.1358C28.9456 18.1055 28.8951 18.0752 28.843 18.044C28.5979 17.9929 28.4419 18.1172 28.2422 18.2452ZM35.9805 24.3194C35.9012 24.3711 35.8218 24.4229 35.7425 24.4746C35.7017 24.5014 35.661 24.528 35.619 24.5555C35.4634 24.6572 35.3069 24.7574 35.1504 24.8576C34.825 25.0657 34.5013 25.2761 34.1814 25.4927C34.0387 25.5864 33.8929 25.6734 33.7461 25.7608C32.8921 26.2759 32.8921 26.2759 32.0586 26.8233C31.6409 27.1093 31.2239 27.3796 30.7757 27.6155C30.6159 27.7011 30.4594 27.7852 30.3086 27.8858C30.3086 27.927 30.3086 27.9683 30.3086 28.0108C30.2648 28.0262 30.221 28.0417 30.1758 28.0577C29.9695 28.1474 29.7992 28.2481 29.6211 28.3858C29.5536 28.5713 29.5509 28.7474 29.5511 28.9434C29.551 29.0053 29.5509 29.0672 29.5509 29.1309C29.5511 29.1984 29.5513 29.2659 29.5515 29.3354C29.5515 29.4068 29.5515 29.4781 29.5515 29.5517C29.5515 29.7877 29.552 30.0237 29.5525 30.2598C29.5527 30.4234 29.5527 30.587 29.5528 30.7505C29.553 31.1372 29.5535 31.5239 29.5541 31.9106C29.5549 32.3509 29.5552 32.7912 29.5555 33.2315C29.5562 34.1371 29.5572 35.0427 29.5586 35.9483C29.7656 35.8685 29.926 35.792 30.0977 35.6514C30.3965 35.4189 30.7233 35.2471 31.0586 35.0733C31.0586 35.032 31.0586 34.9908 31.0586 34.9483C31.0999 34.9341 31.1411 34.9199 31.1836 34.9053C31.507 34.7638 31.7955 34.5686 32.0782 34.3584C32.313 34.1873 32.566 34.0565 32.822 33.9202C33.0352 33.8016 33.2352 33.6685 33.4354 33.5293C33.5562 33.4499 33.6781 33.3852 33.8086 33.3233C33.8086 33.282 33.8086 33.2408 33.8086 33.1983C33.8518 33.183 33.895 33.1677 33.9395 33.1519C34.1507 33.0605 34.3364 32.9421 34.5274 32.8155C34.6052 32.7646 34.6831 32.7138 34.761 32.6631C34.8002 32.6376 34.8394 32.6121 34.8799 32.5857C35.1154 32.4339 35.3552 32.2889 35.5945 32.1431C35.6422 32.1125 35.6422 32.1126 35.6909 32.0814C35.8086 32.0108 35.8086 32.0108 35.9772 31.9281C36.34 31.7411 36.34 31.7411 36.5587 31.4136C36.5809 31.2177 36.5813 31.0321 36.5742 30.8351C36.5743 30.7619 36.5744 30.6887 36.5745 30.6132C36.574 30.372 36.5687 30.1311 36.5633 29.8899C36.562 29.7224 36.561 29.5549 36.5603 29.3874C36.5582 28.992 36.5525 28.5967 36.5457 28.2014C36.5379 27.7511 36.5342 27.3009 36.5307 26.8506C36.5235 25.9247 36.5115 24.999 36.4961 24.0733C36.2927 24.0733 36.1456 24.2102 35.9805 24.3194ZM2.1836 24.1358C2.11554 25.4407 2.09766 26.7464 2.0901 28.0529C2.08816 28.3834 2.08523 28.7139 2.07998 29.0444C2.07485 29.3688 2.07217 29.6931 2.07129 30.0176C2.07048 30.14 2.06885 30.2625 2.06635 30.3849C2.02854 31.029 2.02854 31.029 2.23048 31.6186C2.35641 31.731 2.4711 31.8098 2.6211 31.8858C2.67223 31.9204 2.72329 31.9551 2.77592 31.9907C2.82023 32.0154 2.86454 32.04 2.91016 32.0655C3.1766 32.219 3.43685 32.3796 3.69535 32.5459C3.73329 32.5703 3.77123 32.5947 3.81029 32.6198C3.99685 32.7405 4.1806 32.8633 4.35941 32.9952C4.65529 33.204 4.96391 33.3959 5.3086 33.5108C5.3086 33.552 5.3086 33.5933 5.3086 33.6358C5.35248 33.6585 5.39629 33.6812 5.44141 33.7046C5.77491 33.8813 6.08541 34.0627 6.38041 34.2986C6.51729 34.4017 6.66098 34.4863 6.8086 34.5733C6.91566 34.6406 7.02241 34.7084 7.12891 34.7764C7.18829 34.8142 7.24773 34.852 7.30885 34.8909C7.43598 34.9723 7.56279 35.0542 7.68923 35.1365C7.75054 35.1762 7.81185 35.2159 7.87504 35.2569C7.93116 35.2936 7.98735 35.3302 8.04523 35.3679C8.17498 35.4587 8.17498 35.4587 8.3086 35.4483C8.3086 35.4895 8.3086 35.5308 8.3086 35.5733C8.44473 35.6731 8.44473 35.6731 8.61329 35.7686C8.66985 35.8022 8.72642 35.8359 8.78473 35.8706C8.9241 35.9579 8.9241 35.9579 9.0586 35.9483C9.07323 34.9687 9.08423 33.9892 9.09104 33.0096C9.09423 32.5547 9.0986 32.0999 9.10579 31.6451C9.11204 31.2486 9.11604 30.8522 9.11742 30.4556C9.11823 30.2457 9.12017 30.0359 9.12473 29.826C9.12923 29.5914 9.12985 29.3572 9.1296 29.1226C9.13298 29.0185 9.13298 29.0185 9.13641 28.9124C9.13379 28.7174 9.12598 28.5689 9.0586 28.3858C8.85373 28.1967 8.59704 28.0108 8.3086 28.0108C8.3086 27.9695 8.3086 27.9283 8.3086 27.8858C8.26554 27.863 8.22242 27.8404 8.17804 27.8169C7.84029 27.6362 7.51698 27.4468 7.20073 27.231C7.04235 27.1249 6.88148 27.0241 6.71879 26.9249C6.66729 26.8934 6.61585 26.862 6.56279 26.8296C6.43966 26.751 6.43966 26.751 6.3086 26.7608C6.3086 26.7195 6.3086 26.6783 6.3086 26.6358C6.26554 26.613 6.22242 26.5904 6.17804 26.5669C5.83185 26.3817 5.50179 26.1886 5.18191 25.9607C5.0566 25.8846 4.95191 25.8505 4.8086 25.8233C4.8086 25.782 4.8086 25.7408 4.8086 25.6983C4.75054 25.6658 4.69248 25.6334 4.6326 25.5999C3.9246 25.2014 3.9246 25.2014 3.60648 24.9612C3.46229 24.8627 3.31067 24.7838 3.15629 24.7022C2.88454 24.5581 2.64479 24.3982 2.40604 24.2046C2.31148 24.1237 2.31148 24.1237 2.1836 24.1358ZM20.3086 24.2608C20.3154 25.1138 20.3224 25.9668 20.3299 26.8197C20.3333 27.2159 20.3366 27.612 20.3397 28.0081C20.3427 28.3907 20.346 28.7732 20.3494 29.1557C20.3507 29.3014 20.3519 29.4471 20.353 29.5927C20.3545 29.7974 20.3564 30.0021 20.3583 30.2067C20.3587 30.2664 20.359 30.3261 20.3594 30.3876C20.3624 30.6682 20.3708 30.9482 20.39 31.2282C20.3932 31.2779 20.3965 31.3274 20.3998 31.3785C20.4551 31.5949 20.598 31.6804 20.78 31.7959C20.8307 31.8256 20.8814 31.8552 20.9336 31.8858C21.0522 31.9625 21.1707 32.0393 21.2891 32.1162C21.3995 32.1857 21.5102 32.2547 21.6211 32.3233C21.7049 32.3761 21.7049 32.3761 21.7903 32.43C21.9244 32.521 21.9244 32.521 22.0586 32.5108C22.0586 32.552 22.0586 32.5933 22.0586 32.6358C22.1017 32.6585 22.1449 32.6812 22.1892 32.7046C22.6329 32.942 23.0709 33.1855 23.457 33.5108C23.6175 33.633 23.7751 33.7212 23.9532 33.8155C24.1692 33.9302 24.3665 34.0469 24.5586 34.1983C24.7474 34.3468 24.9399 34.4612 25.1524 34.5733C25.415 34.7119 25.6486 34.8632 25.8804 35.0486C26.0174 35.1517 26.1607 35.2365 26.3086 35.3233C26.3624 35.3564 26.4161 35.3895 26.4715 35.4236C26.5514 35.4726 26.5514 35.4726 26.6329 35.5225C26.6866 35.5556 26.7404 35.5887 26.7957 35.6229C26.9257 35.7082 26.9257 35.7082 27.0586 35.6983C27.0586 35.7395 27.0586 35.7808 27.0586 35.8233C27.1824 35.8645 27.3061 35.9058 27.4336 35.9483C27.4336 33.4527 27.4336 30.957 27.4336 28.3858C27.3099 28.3445 27.1861 28.3033 27.0586 28.2608C27.0586 28.2195 27.0586 28.1783 27.0586 28.1358C27.0155 28.113 26.9724 28.0904 26.928 28.0669C26.6411 27.9134 26.3612 27.759 26.0938 27.5733C25.8815 27.4274 25.6654 27.3107 25.4336 27.1983C25.1525 27.0616 24.8981 26.9106 24.6414 26.7332C24.2847 26.494 23.9056 26.2887 23.5323 26.0769C23.1727 25.8729 22.8162 25.6664 22.4649 25.4483C21.4256 24.7709 21.4256 24.7709 20.3086 24.2608ZM17.0782 24.9795C16.8642 25.1184 16.639 25.2345 16.4141 25.3545C16.2582 25.4415 16.112 25.5349 15.9649 25.6358C15.7076 25.8122 15.4392 25.9578 15.1641 26.1045C15.0082 26.1915 14.862 26.2849 14.7149 26.3858C14.4576 26.5622 14.1892 26.7078 13.9141 26.8545C13.7582 26.9415 13.612 27.0349 13.4649 27.1358C13.2076 27.3122 12.9392 27.4578 12.6641 27.6045C12.5082 27.6915 12.362 27.7849 12.2149 27.8858C11.9042 28.0929 11.5739 28.2695 11.2461 28.4483C11.2461 30.9439 11.2461 33.4395 11.2461 36.0108C11.566 35.8511 11.566 35.8511 11.8682 35.6699C11.9117 35.6417 11.9553 35.6136 12.0002 35.5846C12.0678 35.5403 12.0678 35.5403 12.1367 35.4952C12.1838 35.4646 12.2308 35.4341 12.2792 35.4026C12.5321 35.2376 12.7816 35.069 13.0274 34.8936C13.2977 34.7013 13.579 34.542 13.8711 34.3858C14.0174 34.3032 14.163 34.2194 14.3086 34.1358C14.3086 34.0945 14.3086 34.0533 14.3086 34.0108C14.3515 33.9956 14.3944 33.9805 14.4385 33.9649C14.6551 33.8711 14.8466 33.7495 15.043 33.6202C15.1007 33.5826 15.1007 33.5826 15.1595 33.5443C15.4198 33.3747 15.6787 33.203 15.9359 33.0289C16.0785 32.9352 16.2248 32.8485 16.3711 32.7608C16.4715 32.6959 16.5718 32.6307 16.6719 32.5655C17.0144 32.3464 17.366 32.1466 17.7214 31.9496C17.9009 31.8501 18.0753 31.7497 18.2461 31.6358C18.274 31.5014 18.274 31.5014 18.2687 31.3431C18.2689 31.2814 18.2692 31.2197 18.2695 31.1562C18.2688 31.0882 18.2681 31.0203 18.2674 30.9503C18.2674 30.879 18.2675 30.8076 18.2675 30.7341C18.2674 30.4974 18.2659 30.2607 18.2644 30.0239C18.2641 29.8602 18.2639 29.6964 18.2637 29.5327C18.263 29.1451 18.2615 28.7575 18.2597 28.3699C18.2575 27.9287 18.2565 27.4875 18.2555 27.0463C18.2536 26.1386 18.2503 25.2309 18.2461 24.3233C17.8815 24.3233 17.3744 24.7764 17.0782 24.9795Z" fill="#1406E3"/>
</svg>
